<?xml version="1.0" encoding="utf-8"?>
<!-- Generator: Adobe Illustrator 22.0.1, SVG Export Plug-In . SVG Version: 6.00 Build 0)  -->
<svg version="1.1" id="レイヤー_1" xmlns="http://www.w3.org/2000/svg" xmlns:xlink="http://www.w3.org/1999/xlink" x="0px"
	 y="0px" viewBox="0 0 700 500" style="enable-background:new 0 0 700 500;" xml:space="preserve">
<style type="text/css">
	.st0{display:none;}
	.st1{fill:none;stroke:#000000;stroke-width:22.0736;}
	.st2{fill:none;stroke:#000000;stroke-width:29.4314;}
	.st3{fill:none;stroke:#000000;stroke-width:33.1104;}
	.st4{display:none;fill:none;stroke:#000000;stroke-width:0.7881;}
	.st5{stroke:#000000;stroke-width:15.2946;}
</style>
<path d="M123.6,360.2c0-85.5,58.7-134.2,125.9-134.2s125.9,48.8,125.9,134.2c0,84.4-58.7,133.2-125.9,133.2S123.6,444.6,123.6,360.2
	z M330.7,360.2c0-58.7-32.5-98.1-81.3-98.1c-48.8,0-81.3,39.3-81.3,98.1c0,58.2,32.5,97,81.3,97
	C298.2,457.2,330.7,418.4,330.7,360.2z"/>
<path class="st0" d="M381.6,186.3c0-39,20.7-72.7,69-69.3c15.8,1.1,31.1,3,46.3,9.3l-6.3,29c-13.2-5.6-23.5-7.2-37.3-7.6
	c-23.3-0.7-36.1,11.9-36.1,37.7v222.8h-35.6V186.3z"/>
<path class="st0" d="M494.2,186.3c0-39,24.7-69.3,69-69.3c15.9,0,31.1,3,46.3,9.3l-6.3,29c-13.2-5.6-23.5-8-37.3-7.6
	c-24.6,0.7-35.3,19.3-36.1,37.7v222.8h-35.6V186.3z"/>
<path class="st1" d="M133.9,227.3C161,193.6,202.6,172,249.2,172c46.5,0,88,21.5,115.2,55.1"/>
<path class="st2" d="M90.5,186.9c38-45.3,95-74.1,158.8-74.1c63.6,0,120.6,28.7,158.6,73.9"/>
<path class="st3" d="M29.8,130.5C82.9,68.9,161.5,30,249.2,30c87.6,0,166.1,38.8,219.3,100.2"/>
<line class="st4" x1="228.5" y1="284.4" x2="63.1" y2="130.5"/>
<line class="st4" x1="228.8" y1="284.4" x2="394.6" y2="130.2"/>
<polygon class="st0" points="332.7,255.6 333,223.3 598,220.6 598.2,253.7 "/>
<g>
	<path class="st5" d="M406.2,303.5c0-21.7,0-42.4-0.5-62.1h24.1c1,7.9,1.5,39.9,1,46.8c10.8-25.1,31-52.7,81.8-52.7
		c43.9,0,82.8,24.6,82.8,92.6v159.7h-24.6V332.1c0-43.9-18.2-72.4-61.1-72.4c-58.6,0-78.8,48.8-78.8,102.5v125.7h-24.6V303.5z"/>
</g>
</svg>
