<svg id="レイヤー_1" data-name="レイヤー 1" xmlns="http://www.w3.org/2000/svg" viewBox="0 0 521.73 354.51"><defs><style>.cls-1{fill:#2e3192;}.cls-2,.cls-3,.cls-4,.cls-5{fill:none;}.cls-2,.cls-3,.cls-4{stroke:#2e3192;}.cls-2{stroke-width:20px;}.cls-3{stroke-width:22px;}.cls-4{stroke-width:23.81px;}.cls-5{stroke:#000;stroke-width:0.79px;}</style></defs><title>icon-offline</title><path class="cls-1" d="M79.6,256.5c0-61.5,42.2-96.6,90.5-96.6s90.5,35.1,90.5,96.6c0,60.7-42.2,95.8-90.5,95.8S79.6,317.2,79.6,256.5Zm148.9,0c0-42.2-23.4-70.5-58.5-70.5s-58.5,28.3-58.5,70.5c0,41.9,23.4,69.8,58.5,69.8S228.5,298.4,228.5,256.5Z" transform="translate(-28.87 -7.09)"/><path class="cls-1" d="M322.8,139.7c0-39,20.7-72.7,69-69.3,15.8,1.1,31.1,3,46.3,9.3l-6.3,29c-13.2-5.6-23.5-7.2-37.3-7.6-23.3-.7-36.1,11.9-36.1,37.7V361.6H322.8Z" transform="translate(-28.87 -7.09)"/><path class="cls-1" d="M435.3,139.7c0-39,24.7-69.3,69-69.3a118.9,118.9,0,0,1,46.3,9.3l-6.3,29c-13.2-5.6-23.5-8-37.3-7.6-24.6.7-35.3,19.3-36.1,37.7V361.6H435.3Z" transform="translate(-28.87 -7.09)"/><path class="cls-2" d="M99.5,147.8a106.61,106.61,0,0,1,140.8-.1" transform="translate(-28.87 -7.09)"/><path class="cls-3" d="M73.3,108.2a149,149,0,0,1,193.2-.1" transform="translate(-28.87 -7.09)"/><path class="cls-4" d="M36.5,67.3a208.4,208.4,0,0,1,266.7-.1" transform="translate(-28.87 -7.09)"/><path class="cls-5" d="M335.7,83.6" transform="translate(-28.87 -7.09)"/><path class="cls-5" d="M169.9,237.8" transform="translate(-28.87 -7.09)"/><polygon class="cls-1" points="244.93 202.01 245.23 169.61 510.23 166.91 510.43 200.11 244.93 202.01"/></svg>