<?xml version="1.0" encoding="utf-8"?>
<!-- Generator: Adobe Illustrator 22.1.0, SVG Export Plug-In . SVG Version: 6.00 Build 0)  -->
<svg version="1.1" id="レイヤー_1" xmlns="http://www.w3.org/2000/svg" xmlns:xlink="http://www.w3.org/1999/xlink" x="0px"
	 y="0px" viewBox="0 0 582.3 406.9" style="enable-background:new 0 0 582.3 406.9;" xml:space="preserve">
<style type="text/css">
	.st0{fill:#2E3192;}
	.st1{display:none;}
	.st2{fill:none;stroke:#2E3192;stroke-width:20;}
	.st3{fill:none;stroke:#2E3192;stroke-width:22;}
	.st4{fill:none;stroke:#2E3192;stroke-width:23.8133;}
	.st5{display:none;fill:none;stroke:#000000;stroke-width:0.7881;}
	.st6{fill:none;stroke:#000000;stroke-width:0.7881;}
	.st7{fill:#2E3192;stroke:#2E3192;stroke-width:12;}
</style>
<path class="st0" d="M79.6,256.5c0-61.5,42.2-96.6,90.5-96.6s90.5,35.1,90.5,96.6c0,60.7-42.2,95.8-90.5,95.8S79.6,317.2,79.6,256.5
	z M228.5,256.5c0-42.2-23.4-70.5-58.5-70.5s-58.5,28.3-58.5,70.5c0,41.9,23.4,69.8,58.5,69.8C205.2,326.3,228.5,298.4,228.5,256.5z"
	/>
<path class="st1" d="M322.8,139.7c0-39,20.7-72.7,69-69.3c15.8,1.1,31.1,3,46.3,9.3l-6.3,29c-13.2-5.6-23.5-7.2-37.3-7.6
	c-23.3-0.7-36.1,11.9-36.1,37.7v222.8h-35.6V139.7z"/>
<path class="st1" d="M435.3,139.7c0-39,24.7-69.3,69-69.3c15.9,0,31.1,3,46.3,9.3l-6.3,29c-13.2-5.6-23.5-8-37.3-7.6
	c-24.6,0.7-35.3,19.3-36.1,37.7v222.8h-35.6V139.7z"/>
<path class="st2" d="M99.5,147.8c18.8-16.6,43.4-26.6,70.5-26.6c27,0,51.5,10,70.3,26.5"/>
<path class="st3" d="M73.3,108.2c26-22.2,59.8-35.6,96.7-35.6s70.6,13.3,96.5,35.5"/>
<path class="st4" d="M36.5,67.3C72.7,37.1,119.2,19,169.9,19s97.2,18.1,133.3,48.2"/>
<line class="st5" x1="169.8" y1="237.8" x2="30.8" y2="59.9"/>
<line class="st5" x1="308.9" y1="59.9" x2="169.8" y2="237.8"/>
<path class="st6" d="M335.7,83.6"/>
<path class="st6" d="M169.9,237.8"/>
<polygon class="st1" points="273.8,209.1 274.1,176.7 539.1,174 539.3,207.2 "/>
<g>
	<path class="st7" d="M282.8,215.8c0-15.6,0-30.5-0.4-44.7h17.4c0.7,5.7,1.1,28.7,0.7,33.7c7.8-18.1,22.3-37.9,58.8-37.9
		c31.5,0,59.5,17.7,59.5,66.6v114.8h-17.7v-112c0-31.5-13.1-52.1-43.9-52.1c-42.2,0-56.7,35.1-56.7,73.7v90.4h-17.7L282.8,215.8
		L282.8,215.8z"/>
</g>
</svg>
