<?xml version="1.0" encoding="UTF-8" standalone="no"?>
<svg width="72px" height="71px" viewBox="0 0 72 71" version="1.1" xmlns="http://www.w3.org/2000/svg" xmlns:xlink="http://www.w3.org/1999/xlink">
    <!-- Generator: Sketch 50.2 (55047) - http://www.bohemiancoding.com/sketch -->
    <title>icon-offline</title>
    <desc>Created with Sketch.</desc>
    <defs></defs>
    <g id="Page-1" stroke="none" stroke-width="1" fill="none" fill-rule="evenodd">
        <g id="cover/offline" transform="translate(-112.000000, -98.000000)" fill="#000000">
            <path d="M116.56338,99.6901408 L120.112676,103.408451 L180.450704,163.746479 L175.887324,168.309859 L148.84507,141.098592 L148.676056,141.098592 L148,141.267606 C146.0845,141.267606 144.39437,140.535215 142.929577,139.070423 C141.464785,137.60563 140.732394,135.9155 140.732394,134 L140.901408,133.323944 L135.15493,127.577465 C134.140845,129.605645 133.633803,131.746472 133.633803,134 C133.633803,139.521152 135.999978,143.690126 140.732394,146.507042 L137.183099,152.760563 C133.915475,150.845063 131.295784,148.225372 129.323938,144.901414 C127.352104,141.577445 126.366197,137.94368 126.366197,134 C126.366197,129.718292 127.492951,125.831 129.746479,122.338028 L124.676056,117.098592 C120.957728,122.281715 119.098592,127.915461 119.098592,134 C119.098592,139.183124 120.394354,143.999977 122.985915,148.450699 C125.577483,152.901432 129.070401,156.422517 133.464789,159.014085 L129.915493,165.267606 C124.394341,162.112661 120.028185,157.746507 116.816901,152.169009 C113.605618,146.591522 112,140.535247 112,134 C112,125.661932 114.478849,118.281723 119.43662,111.859155 L112,104.253521 L116.56338,99.6901408 Z M148,105.098592 C143.154904,105.098592 138.647913,106.225345 134.478873,108.478873 L129.239437,103.239437 C134.873268,99.7464645 141.126725,98 148,98 C157.91554,98 166.394336,101.521096 173.436625,108.563375 C180.478904,115.605664 184,124.08446 184,134 C184,140.873275 182.253536,147.126732 178.760563,152.760563 L173.352113,147.521127 C175.718321,143.126739 176.901408,138.619736 176.901408,134 C176.901408,126.11264 174.056369,119.323974 168.366203,113.633797 C162.676026,107.943631 155.88736,105.098592 148,105.098592 Z M168.112676,144 L162.197183,137.709187 C162.309863,137.229883 162.366197,136.451024 162.366197,135.372599 C162.366197,131.178705 160.957761,127.583989 158.140845,124.588348 C155.323929,121.592708 151.94368,120.09491 148,120.09491 C146.985915,120.09491 146.253525,120.154819 145.802817,120.274648 L139.887324,113.983835 C142.366212,112.90541 145.070405,112.366197 148,112.366197 C153.97186,112.366197 159.070406,114.612899 163.29578,119.106348 C167.521143,123.599809 169.633803,129.021843 169.633803,135.372599 C169.633803,138.488069 169.126761,141.363834 168.112676,144 Z" id="icon-offline"></path>
        </g>
    </g>
</svg>