<?xml version="1.0" encoding="utf-8"?>
<!-- Generator: Adobe Illustrator 22.0.1, SVG Export Plug-In . SVG Version: 6.00 Build 0)  -->
<svg version="1.1" id="レイヤー_1" xmlns="http://www.w3.org/2000/svg" xmlns:xlink="http://www.w3.org/1999/xlink" x="0px"
	 y="0px" viewBox="0 0 72 71" style="enable-background:new 0 0 72 71;" xml:space="preserve">
<style type="text/css">
	.st0{fill:#446491;}
</style>
<title>icon-offline</title>
<desc>Created with Sketch.</desc>
<g id="Page-1">
	<g id="cover_x2F_offline" transform="translate(-112.000000, -98.000000)">
		<path id="icon-offline" class="st0" d="M116.6,99.7l3.5,3.7l60.3,60.3l-4.6,4.6l-27-27.2h-0.2l-0.7,0.2c-1.9,0-3.6-0.7-5.1-2.2
			c-1.5-1.5-2.2-3.2-2.2-5.1l0.2-0.7l-5.7-5.7c-1,2-1.5,4.2-1.5,6.4c0,5.5,2.4,9.7,7.1,12.5l-3.5,6.3c-3.3-1.9-5.9-4.5-7.9-7.9
			c-2-3.3-3-7-3-10.9c0-4.3,1.1-8.2,3.4-11.7l-5.1-5.2c-3.7,5.2-5.6,10.8-5.6,16.9c0,5.2,1.3,10,3.9,14.5c2.6,4.5,6.1,8,10.5,10.6
			l-3.5,6.3c-5.5-3.2-9.9-7.5-13.1-13.1c-3.2-5.6-4.8-11.6-4.8-18.2c0-8.3,2.5-15.7,7.4-22.1l-7.4-7.6L116.6,99.7z M148,105.1
			c-4.8,0-9.4,1.1-13.5,3.4l-5.2-5.2c5.6-3.5,11.9-5.2,18.8-5.2c9.9,0,18.4,3.5,25.4,10.6c7,7,10.6,15.5,10.6,25.4
			c0,6.9-1.7,13.1-5.2,18.8l-5.4-5.2c2.4-4.4,3.5-8.9,3.5-13.5c0-7.9-2.8-14.7-8.5-20.4C162.7,107.9,155.9,105.1,148,105.1z
			 M168.1,144l-5.9-6.3c0.1-0.5,0.2-1.3,0.2-2.3c0-4.2-1.4-7.8-4.2-10.8c-2.8-3-6.2-4.5-10.1-4.5c-1,0-1.7,0.1-2.2,0.2l-5.9-6.3
			c2.5-1.1,5.2-1.6,8.1-1.6c6,0,11.1,2.2,15.3,6.7c4.2,4.5,6.3,9.9,6.3,16.3C169.6,138.5,169.1,141.4,168.1,144z"/>
	</g>
</g>
</svg>
