<?xml version="1.0" encoding="utf-8"?>
<!-- Generator: Adobe Illustrator 22.0.1, SVG Export Plug-In . SVG Version: 6.00 Build 0)  -->
<svg version="1.1" xmlns="http://www.w3.org/2000/svg" xmlns:xlink="http://www.w3.org/1999/xlink" x="0px" y="0px"
	 viewBox="0 0 860 648" style="enable-background:new 0 0 860 648;" xml:space="preserve">
<style type="text/css">
	.st0{display:none;}
	.st1{display:inline;}
	.st2{fill:#FFFFFF;}
	.st3{fill:#FFFFFF;stroke:#000000;stroke-width:0.75;stroke-miterlimit:10;}
	.st4{fill:none;stroke:#FFFFFF;stroke-width:1.9096;stroke-linecap:round;stroke-miterlimit:10;}
	.st5{fill:none;stroke:#FFFFFF;stroke-width:1.9096;stroke-linecap:round;stroke-miterlimit:10;stroke-dasharray:8.2644,8.2644;}
	.st6{fill:none;stroke:#FFFFFF;stroke-width:1.9212;stroke-linecap:round;stroke-miterlimit:10;}
	.st7{fill:none;stroke:#FFFFFF;stroke-width:1.9212;stroke-linecap:round;stroke-miterlimit:10;stroke-dasharray:8.3701,8.3701;}
	.st8{fill:none;stroke:#FFFFFF;stroke-width:12.2302;stroke-linecap:round;stroke-miterlimit:10;}
	.st9{fill:none;stroke:#FFFFFF;stroke-width:12.2302;stroke-miterlimit:10;}
</style>
<g id="レイヤー_2" class="st0">
	<rect class="st1" width="860" height="648"/>
</g>
<g id="レイヤー_1">
	<path class="st2" d="M87.9,250.5c-5.1,4-11.5,6.4-18.4,6.4s-13.3-2.4-18.4-6.4c-7,5.5-11.4,13.9-11.4,23.5
		c0,16.5,13.4,29.8,29.8,29.8c16.5,0,29.8-13.4,29.8-29.8C99.4,264.4,94.9,255.9,87.9,250.5z"/>
	<path class="st2" d="M69.5,331.7c-11.1,0-20.8-6.1-25.9-15.1c-2.5,4.4-3.9,9.4-3.9,14.8c0,16.5,13.4,29.8,29.8,29.8
		c16.5,0,29.8-13.4,29.8-29.8c0-5.4-1.4-10.4-3.9-14.8C90.3,325.6,80.6,331.7,69.5,331.7z"/>
	<path class="st2" d="M39.7,379.3c0,0.1,0,0.2,0,0.3c0,16.5,13.4,29.8,29.8,29.8c16.5,0,29.8-13.4,29.8-29.8c0-0.1,0-0.2,0-0.3H39.7
		z"/>
	<polygon class="st2" points="151.4,241.4 126.9,241.4 126.9,278.5 150.5,278.5 190,297.3 190,222.7 	"/>
	<path class="st3" d="M120.4,431.2"/>
	<g>
		<g>
			<line class="st4" x1="691.5" y1="312.3" x2="695.6" y2="312.3"/>
			<line class="st5" x1="703.8" y1="312.3" x2="765.8" y2="312.3"/>
			<line class="st4" x1="769.9" y1="312.3" x2="774" y2="312.3"/>
		</g>
	</g>
	<g>
		<g>
			<line class="st4" x1="691.5" y1="411.5" x2="695.6" y2="411.5"/>
			<line class="st5" x1="703.8" y1="411.5" x2="765.8" y2="411.5"/>
			<line class="st4" x1="769.9" y1="411.5" x2="774" y2="411.5"/>
		</g>
	</g>
	<g>
		<g>
			<line class="st4" x1="691.5" y1="361.8" x2="695.6" y2="361.8"/>
			<line class="st5" x1="703.8" y1="361.8" x2="765.8" y2="361.8"/>
			<line class="st4" x1="769.9" y1="361.8" x2="774" y2="361.8"/>
		</g>
	</g>
	<rect x="687.8" y="307.8" class="st2" width="13.5" height="111.8"/>
	<rect x="765.5" y="308.1" class="st2" width="13.5" height="111.8"/>
	<g>
		<g>
			<line class="st6" x1="116.4" y1="342.6" x2="120.5" y2="342.6"/>
			<line class="st7" x1="128.9" y1="342.6" x2="191.6" y2="342.6"/>
			<line class="st6" x1="195.8" y1="342.6" x2="199.9" y2="342.6"/>
		</g>
	</g>
	<g>
		<g>
			<line class="st6" x1="116.4" y1="312.5" x2="120.5" y2="312.5"/>
			<line class="st7" x1="128.9" y1="312.5" x2="191.6" y2="312.5"/>
			<line class="st6" x1="195.8" y1="312.5" x2="199.9" y2="312.5"/>
		</g>
	</g>
	<g>
		<g>
			<line class="st6" x1="116.4" y1="382.1" x2="120.5" y2="382.1"/>
			<line class="st7" x1="128.9" y1="382.1" x2="191.6" y2="382.1"/>
			<line class="st6" x1="195.8" y1="382.1" x2="199.9" y2="382.1"/>
		</g>
	</g>
	<rect x="113" y="308" class="st2" width="13.5" height="111.8"/>
	<rect x="190.6" y="308.3" class="st2" width="13.5" height="111.8"/>
	<path class="st8" d="M652.2,246h125.4c0,0,27.3-3.2,41.6,14.8"/>
	<path class="st8" d="M652.2,289h125.4c0,0,27.3-3.2,41.6,14.8"/>
	<line class="st9" x1="733.2" y1="248.1" x2="733.2" y2="285.1"/>
	<line class="st9" x1="778.2" y1="248.1" x2="778.2" y2="285.1"/>
	<line class="st9" x1="688.2" y1="248.1" x2="688.2" y2="285.1"/>
	<path class="st2" d="M743,197.9c-1.7,1.2-3.1,2.7-4.2,4.3c-6.1,7.4-6.7,24.1-4.4,33l6.4-6.8c3.7-3.9,14.8-9.1,16.3-10.2
		c6.4-4.4,8.4-12.6,4.5-18.2C757.7,194.4,749.4,193.4,743,197.9z"/>
</g>
</svg>
