<?xml version="1.0" encoding="utf-8"?>
<!-- Generator: Adobe Illustrator 22.0.1, SVG Export Plug-In . SVG Version: 6.00 Build 0)  -->
<svg version="1.1" xmlns="http://www.w3.org/2000/svg" xmlns:xlink="http://www.w3.org/1999/xlink" x="0px" y="0px"
	 viewBox="0 0 1366 768" style="enable-background:new 0 0 1366 768;" xml:space="preserve">
<style type="text/css">
	.st0{fill:#FFFFFF;}
	.st1{fill:#FFFFFF;stroke:#000000;stroke-width:1.5;stroke-miterlimit:10;}
	.st2{fill:none;stroke:#FFFFFF;stroke-width:3.8192;stroke-linecap:round;stroke-miterlimit:10;}
	.st3{fill:none;stroke:#FFFFFF;stroke-width:3.8192;stroke-linecap:round;stroke-miterlimit:10;stroke-dasharray:16.5289,16.5289;}
	.st4{fill:none;stroke:#FFFFFF;stroke-width:3.8423;stroke-linecap:round;stroke-miterlimit:10;}
	.st5{fill:none;stroke:#FFFFFF;stroke-width:3.8423;stroke-linecap:round;stroke-miterlimit:10;stroke-dasharray:16.7402,16.7402;}
	.st6{fill:none;stroke:#FFFFFF;stroke-width:24.4605;stroke-linecap:round;stroke-miterlimit:10;}
	.st7{fill:none;stroke:#FFFFFF;stroke-width:24.4605;stroke-miterlimit:10;}
</style>
<g id="レイヤー_2">
</g>
<g id="レイヤー_1">
	<g>
		<path class="st0" d="M396.1,247.4c-10.1,8-22.9,12.7-36.8,12.7c-13.9,0-26.7-4.8-36.8-12.7c-13.9,10.9-22.8,27.9-22.8,46.9
			c0,33,26.7,59.7,59.7,59.7s59.7-26.7,59.7-59.7C418.9,275.3,410,258.3,396.1,247.4z"/>
		<path class="st0" d="M359.2,409.8c-22.2,0-41.6-12.1-51.9-30.1c-5,8.7-7.8,18.8-7.8,29.6c0,33,26.7,59.7,59.7,59.7
			s59.7-26.7,59.7-59.7c0-10.8-2.9-20.8-7.8-29.6C400.8,397.7,381.5,409.8,359.2,409.8z"/>
		<path class="st0" d="M299.6,505c0,0.2,0,0.4,0,0.6c0,33,26.7,59.7,59.7,59.7s59.7-26.7,59.7-59.7c0-0.2,0-0.4,0-0.6H299.6z"/>
		<polygon class="st0" points="522.9,229.2 473.9,229.2 473.9,303.4 521.1,303.4 600.2,340.9 600.2,191.7 		"/>
		<path class="st1" d="M460.9,608.7"/>
		<g>
			<g>
				<line class="st2" x1="811" y1="371.1" x2="819.1" y2="371.1"/>
				<line class="st3" x1="835.6" y1="371.1" x2="959.6" y2="371.1"/>
				<line class="st2" x1="967.9" y1="371.1" x2="976" y2="371.1"/>
			</g>
		</g>
		<g>
			<g>
				<line class="st2" x1="811" y1="569.3" x2="819.1" y2="569.3"/>
				<line class="st3" x1="835.6" y1="569.3" x2="959.6" y2="569.3"/>
				<line class="st2" x1="967.9" y1="569.3" x2="976" y2="569.3"/>
			</g>
		</g>
		<g>
			<g>
				<line class="st2" x1="811" y1="470" x2="819.1" y2="470"/>
				<line class="st3" x1="835.6" y1="470" x2="959.6" y2="470"/>
				<line class="st2" x1="967.9" y1="470" x2="976" y2="470"/>
			</g>
		</g>
		<rect x="803.7" y="362" class="st0" width="27" height="223.7"/>
		<rect x="958.9" y="362.7" class="st0" width="27" height="223.7"/>
		<g>
			<g>
				<line class="st4" x1="453" y1="431.7" x2="461.2" y2="431.7"/>
				<line class="st5" x1="477.9" y1="431.7" x2="603.5" y2="431.7"/>
				<line class="st4" x1="611.8" y1="431.7" x2="620" y2="431.7"/>
			</g>
		</g>
		<g>
			<g>
				<line class="st4" x1="453" y1="371.4" x2="461.2" y2="371.4"/>
				<line class="st5" x1="477.9" y1="371.4" x2="603.5" y2="371.4"/>
				<line class="st4" x1="611.8" y1="371.4" x2="620" y2="371.4"/>
			</g>
		</g>
		<g>
			<g>
				<line class="st4" x1="453" y1="510.5" x2="461.2" y2="510.5"/>
				<line class="st5" x1="477.9" y1="510.5" x2="603.5" y2="510.5"/>
				<line class="st4" x1="611.8" y1="510.5" x2="620" y2="510.5"/>
			</g>
		</g>
		<rect x="446.2" y="362.3" class="st0" width="27" height="223.7"/>
		<rect x="601.4" y="363" class="st0" width="27" height="223.7"/>
		<path class="st6" d="M732.4,238.4h250.8c0,0,54.5-6.4,83.2,29.5"/>
		<path class="st6" d="M732.4,324.5h250.8c0,0,54.5-6.4,83.2,29.5"/>
		<line class="st7" x1="894.4" y1="242.6" x2="894.4" y2="316.7"/>
		<line class="st7" x1="984.4" y1="242.6" x2="984.4" y2="316.7"/>
		<line class="st7" x1="804.4" y1="242.6" x2="804.4" y2="316.7"/>
		<path class="st0" d="M914,142.1c-3.5,2.4-6.3,5.4-8.4,8.6c-12.1,14.9-13.4,48.3-8.9,66l12.8-13.6c7.4-7.9,29.6-18.3,32.7-20.4
			c12.8-8.9,16.8-25.2,9-36.4C943.5,135.1,926.8,133.2,914,142.1z"/>
	</g>
</g>
</svg>
