<?xml version="1.0" encoding="utf-8"?>
<!-- Generator: Adobe Illustrator 22.0.1, SVG Export Plug-In . SVG Version: 6.00 Build 0)  -->
<svg version="1.1" id="レイヤー_1" xmlns="http://www.w3.org/2000/svg" xmlns:xlink="http://www.w3.org/1999/xlink" x="0px"
	 y="0px" viewBox="0 0 267.4 140.4" style="enable-background:new 0 0 267.4 140.4;" xml:space="preserve">
<style type="text/css">
	.st0{display:none;fill:#2D0A0A;}
	.st1{fill:#FFFFFF;}
	.st2{fill:#FFFFFF;stroke:#000000;stroke-width:0.375;stroke-miterlimit:10;}
	.st3{fill:none;stroke:#FFFFFF;stroke-width:0.9548;stroke-linecap:round;stroke-miterlimit:10;}
	.st4{fill:none;stroke:#FFFFFF;stroke-width:0.9548;stroke-linecap:round;stroke-miterlimit:10;stroke-dasharray:4.1322,4.1322;}
	.st5{fill:none;stroke:#FFFFFF;stroke-width:0.9606;stroke-linecap:round;stroke-miterlimit:10;}
	.st6{fill:none;stroke:#FFFFFF;stroke-width:0.9606;stroke-linecap:round;stroke-miterlimit:10;stroke-dasharray:4.1851,4.1851;}
	.st7{fill:none;stroke:#FFFFFF;stroke-width:6.1151;stroke-linecap:round;stroke-miterlimit:10;}
	.st8{fill:none;stroke:#FFFFFF;stroke-width:6.1151;stroke-miterlimit:10;}
</style>
<rect class="st0" width="267.4" height="140.4"/>
<path class="st1" d="M34.9,37.7c-2.5,2-5.7,3.2-9.2,3.2s-6.6-1.2-9.2-3.2c-3.5,2.8-5.7,6.9-5.7,11.8c0,8.2,6.7,14.9,14.9,14.9
	c8.3,0,14.9-6.7,14.9-14.9C40.6,44.6,38.4,40.4,34.9,37.7z"/>
<path class="st1" d="M25.7,78.3c-5.5,0-10.4-3.1-13-7.6c-1.2,2.2-2,4.7-2,7.4c0,8.2,6.7,14.9,14.9,14.9c8.3,0,14.9-6.7,14.9-14.9
	c0-2.7-0.7-5.2-2-7.4C36.1,75.2,31.2,78.3,25.7,78.3z"/>
<path class="st1" d="M10.8,102.1c0,0.1,0,0.1,0,0.1c0,8.2,6.7,14.9,14.9,14.9c8.3,0,14.9-6.7,14.9-14.9c0-0.1,0-0.1,0-0.1H10.8z"/>
<polygon class="st1" points="66.6,33.1 54.4,33.1 54.4,51.7 66.2,51.7 85.9,61.1 85.9,23.8 "/>
<path class="st2" d="M51.1,128"/>
<g>
	<g>
		<line class="st3" x1="188.2" y1="68.6" x2="190.2" y2="68.6"/>
		<line class="st4" x1="194.3" y1="68.6" x2="225.3" y2="68.6"/>
		<line class="st3" x1="227.4" y1="68.6" x2="229.4" y2="68.6"/>
	</g>
</g>
<g>
	<g>
		<line class="st3" x1="188.2" y1="118.2" x2="190.2" y2="118.2"/>
		<line class="st4" x1="194.3" y1="118.2" x2="225.3" y2="118.2"/>
		<line class="st3" x1="227.4" y1="118.2" x2="229.4" y2="118.2"/>
	</g>
</g>
<g>
	<g>
		<line class="st3" x1="188.2" y1="93.3" x2="190.2" y2="93.3"/>
		<line class="st4" x1="194.3" y1="93.3" x2="225.3" y2="93.3"/>
		<line class="st3" x1="227.4" y1="93.3" x2="229.4" y2="93.3"/>
	</g>
</g>
<rect x="186.3" y="66.3" class="st1" width="6.8" height="55.9"/>
<rect x="225.2" y="66.5" class="st1" width="6.8" height="55.9"/>
<g>
	<g>
		<line class="st5" x1="49.1" y1="83.7" x2="51.2" y2="83.7"/>
		<line class="st6" x1="55.4" y1="83.7" x2="86.7" y2="83.7"/>
		<line class="st5" x1="88.8" y1="83.7" x2="90.9" y2="83.7"/>
	</g>
</g>
<g>
	<g>
		<line class="st5" x1="49.1" y1="68.7" x2="51.2" y2="68.7"/>
		<line class="st6" x1="55.4" y1="68.7" x2="86.7" y2="68.7"/>
		<line class="st5" x1="88.8" y1="68.7" x2="90.9" y2="68.7"/>
	</g>
</g>
<g>
	<g>
		<line class="st5" x1="49.1" y1="103.5" x2="51.2" y2="103.5"/>
		<line class="st6" x1="55.4" y1="103.5" x2="86.7" y2="103.5"/>
		<line class="st5" x1="88.8" y1="103.5" x2="90.9" y2="103.5"/>
	</g>
</g>
<rect x="47.4" y="66.4" class="st1" width="6.8" height="55.9"/>
<rect x="86.2" y="66.6" class="st1" width="6.8" height="55.9"/>
<path class="st7" d="M168.5,35.4h62.7c0,0,13.6-1.6,20.8,7.4"/>
<path class="st7" d="M168.5,56.9h62.7c0,0,13.6-1.6,20.8,7.4"/>
<line class="st8" x1="209" y1="36.5" x2="209" y2="55"/>
<line class="st8" x1="231.5" y1="36.5" x2="231.5" y2="55"/>
<line class="st8" x1="186.5" y1="36.5" x2="186.5" y2="55"/>
<path class="st1" d="M213.9,11.4c-0.9,0.6-1.5,1.3-2.1,2.2c-3,3.7-3.4,12.1-2.2,16.5l3.2-3.4c1.9-1.9,7.4-4.6,8.1-5.1
	c3.2-2.2,4.2-6.3,2.2-9.1C221.3,9.6,217.1,9.1,213.9,11.4z"/>
</svg>
