<?xml version="1.0" encoding="utf-8"?>
<!-- Generator: Adobe Illustrator 22.0.1, SVG Export Plug-In . SVG Version: 6.00 Build 0)  -->
<svg version="1.1" xmlns="http://www.w3.org/2000/svg" xmlns:xlink="http://www.w3.org/1999/xlink" x="0px" y="0px"
	 viewBox="0 0 181.5 181.5" style="enable-background:new 0 0 181.5 181.5;" xml:space="preserve">
<style type="text/css">
	.st0{fill:none;stroke:#FFFFFF;stroke-width:1.5;stroke-miterlimit:10;}
	.st1{fill:#FFFFFF;}
</style>
<g id="レイヤー_2">
</g>
<g id="レイヤー_1">
	<g>
		<path class="st0" d="M42.7,14.7c-42,26.6-54.5,82.1-28,124.1c26.6,42,82.1,54.5,124.1,28s54.5-82.1,28-124.1
			C140.2,0.7,84.7-11.9,42.7,14.7z M105.2,113.6c-12.6,8-29.3,4.2-37.2-8.4s-4.2-29.3,8.4-37.2s29.3-4.2,37.2,8.4
			S117.8,105.6,105.2,113.6z"/>
		<g>
			<path class="st1" d="M82.6,116.5c-7.6-2.4-13.8-8.1-16.8-15.4c-34,4.5-54,25-56.6,27.7c9.2,19.6,25.2,35.3,45,44.1
				C62.6,163.4,77.1,143.4,82.6,116.5z"/>
			<path class="st1" d="M66.2,78.6l0.3,0.3c3.3-6.8,9.4-12,16.7-14.1L83,64.6C78.1,38.2,64.4,18.3,55.7,7.8
				C35.6,16.3,19.2,32,9.7,51.6C20.3,60.3,40.1,73.8,66.2,78.6z"/>
			<path class="st1" d="M172,129.2c0,0-20.3-23-56.4-28c-2.1,5-5.7,9.3-10.2,12.2c3.8,32.2,22.1,52.2,27,57.1
				C149.7,161.4,163.8,146.9,172,129.2L172,129.2z"/>
			<path class="st1" d="M105.2,67.9c4.1,2.6,7.5,6.3,9.7,10.7c26.4-4.9,46.3-18.6,56.8-27.3c-8.7-17.8-23.1-32.3-40.8-41.1
				C124.2,17.2,108.1,37.2,105.2,67.9z"/>
		</g>
	</g>
</g>
</svg>
