<?xml version="1.0" encoding="utf-8"?>
<!-- Generator: Adobe Illustrator 22.0.1, SVG Export Plug-In . SVG Version: 6.00 Build 0)  -->
<svg version="1.1" xmlns="http://www.w3.org/2000/svg" xmlns:xlink="http://www.w3.org/1999/xlink" x="0px" y="0px"
	 viewBox="0 0 960 560" style="enable-background:new 0 0 960 560;" xml:space="preserve">
<style type="text/css">
	.st0{opacity:0.75;}
	.st1{opacity:0.7;}
	.st2{opacity:0.55;}
</style>
<g id="レイヤー_1">
</g>
<g id="レイヤー_2" class="st0">
</g>
<g id="レイヤー_3">
	<g class="st1">
		<path class="st2" d="M105.4,126c0,0,10.8-23,30-4.9c14.6,13.8,26,10.5,26,10.5s36.5,1.6,3.2,31.6S94,151.2,105.4,126z"/>
		<path d="M164.7,126.2c4.7-1.6,21.6-15.5,22.4,0.8c0.8,16.2-9.3,30.1-8.5,36.3c0.8,6.2-5.4,19.3-8.5,12.4c-3.1-7-7-30.9-10.8-22.4
			S148.4,131.6,164.7,126.2z"/>
		<path d="M99,126.2c9.3-12.4,38.6-30.9,41-10.8c1.4,12.6-28.1,18.1-17.8,35.5c7.7,13.1-2,9,16.2,16.2c10.5,4.1,3.1,27-10.8,23.2
			c-13.9-3.9-38.6-11.6-37.9-31.7S99,126.2,99,126.2z"/>
	</g>
	<g class="st1">
		<path class="st2" d="M860.4,224c0,0,10.8-23,30-4.9c14.6,13.8,26,10.5,26,10.5s36.5,1.6,3.2,31.6C886.3,291.4,849,249.2,860.4,224
			z"/>
		<path d="M919.7,224.2c4.7-1.6,21.6-15.5,22.4,0.8s-9.3,30.1-8.5,36.3c0.8,6.2-5.4,19.3-8.5,12.4c-3.1-7-7-30.9-10.8-22.4
			C910.4,259.7,903.4,229.6,919.7,224.2z"/>
		<path d="M854,224.2c9.3-12.4,38.6-30.9,41-10.8c1.4,12.6-28.1,18.1-17.8,35.5c7.7,13.1-2,9,16.2,16.2c10.5,4.1,3.1,27-10.8,23.2
			s-38.6-11.6-37.9-31.7C845.5,236.5,854,224.2,854,224.2z"/>
	</g>
	<g class="st1">
		<path class="st2" d="M698.4,118c0,0,10.8-23,30-4.9c14.6,13.8,26,10.5,26,10.5s36.5,1.6,3.2,31.6C724.3,185.4,687,143.2,698.4,118
			z"/>
		<path d="M757.7,118.2c4.7-1.6,21.6-15.5,22.4,0.8s-9.3,30.1-8.5,36.3c0.8,6.2-5.4,19.3-8.5,12.4c-3.1-7-7-30.9-10.8-22.4
			C748.4,153.7,741.4,123.6,757.7,118.2z"/>
		<path d="M692,118.2c9.3-12.4,38.6-30.9,41-10.8c1.4,12.6-28.1,18.1-17.8,35.5c7.7,13.1-2,9,16.2,16.2c10.5,4.1,3.1,27-10.8,23.2
			c-13.9-3.9-38.6-11.6-37.9-31.7C683.5,130.5,692,118.2,692,118.2z"/>
	</g>
	<g class="st1">
		<path class="st2" d="M424.7,31.6c0,0-39.5,37.2-10.8,33.3S415,89,435.8,81s67.9-30.1,59.3-46.1C486.5,18.9,427.9,18.4,424.7,31.6z
			"/>
		<path d="M419.4,83.2c11-6.9,9.2-19.3,14.3-17.5c5.1,1.8,18.7,4.7,19.7,0.8c1-3.9,41.5-17.4,31.8-27.3c-9.7-9.9-42.9-21.1-47.7-8.4
			s-38.3,18.5-31.5,2.7c6.8-15.8,13.4-20.2,15.8-18.1c2.3,2.1,3.1,10.5,7,4.5c3.8-6,14.3-11.8,17.5-9.8s20.6,6.4,22,3.9
			s9.4,0.9,14,5.2s25-7.7,24.3,9.8S493.1,81,481.4,76.9c-11.7-4-21.6,0.3-24,6.7C454.9,90,403.3,93.3,419.4,83.2z"/>
	</g>
	<g class="st1">
		<path class="st2" d="M177.5,472.6c0,0,17.9-33.9,27.5-7.3c6.7,18.6,25,9.5,25,9.5s34.7-23.3,5.5,33.6
			C214.5,549.6,152.7,509.4,177.5,472.6z"/>
		<path d="M170,450.4c12.7-0.9,38.1-7.6,39-1.9c1,5.7-8.6,26.7-16.2,30.5c-7.6,3.8-5.7,23.8,1,21.9c6.7-1.9,1-14.3,6.7-1.9
			c5.7,12.4,19,8.6,21.9,0c2.9-8.6,0-33.9,7.6-24.1c7.6,9.8,8.6-12.1,11.5-16.9c2.9-4.8,14.3,2.9,16.2,17.1
			c1.9,14.3,16.2,28.6-1.9,39s-15.2,17.1-20,18.1s-4.8,0-17.1,2.9c-12.4,2.9-40-7.6-40-14.3c0-6.7-17.1-1-19-7.6
			c-1.9-6.7-5.7-27.6,7.6-22.9s8.6-18.1,3.8-15.2S156.7,451.3,170,450.4z"/>
	</g>
	<g class="st1">
		<path class="st2" d="M326.5,136.6c0,0-40.4-3.6-11.2-14.7c20.3-7.8,8.1-16.6,8.1-16.6S293.3,89.6,361,95.1
			C409.8,99,370.8,143.7,326.5,136.6z"/>
		<path d="M302,145.6c-2.4-7.3-12.7-20.8-6.3-22.6c6.4-1.7,31.2-0.4,36.3,3.3c5.1,3.7,27.6-1.5,24.8-5.1c-2.9-3.5-16.3,2.4-2.9-3.5
			c13.4-5.9,7.7-13-2.3-12.9c-10,0.1-38.4,7-28.1,0.5c10.3-6.5-14.7-2.6-20.4-3.3c-5.7-0.7,1.7-9,17.7-13.1
			c16-4.1,30.7-15.4,44.5-6.9s21.1,5.4,22.7,8c1.6,2.6,0.5,2.8,5.1,9.5c4.6,6.7-4.4,25.1-11.9,26.5s0.7,10.3-6.6,12.8
			c-7.4,2.5-30.7,9-26.8,0.2c4-8.8-21.5-1.3-17.7,0.9C333.8,142.2,304.5,153.2,302,145.6z"/>
	</g>
	<g class="st1">
		<path class="st2" d="M833.3,156.7c0,0-30.3-5.4-8.4-22.1c15.3-11.7,6.1-25.1,6.1-25.1S808.4,86,859.3,94.2
			C895.9,100.1,866.6,167.3,833.3,156.7z"/>
		<path d="M814.9,170.3c-1.8-11-9.5-31.4-4.8-34c4.8-2.6,23.4-0.7,27.3,4.9c3.9,5.6,20.8-2.3,18.6-7.6c-2.2-5.3-12.3,3.6-2.2-5.3
			s5.8-19.5-1.8-19.4c-7.5,0.1-28.9,10.5-21.1,0.7s-11-3.9-15.3-4.9c-4.3-1.1,1.3-13.5,13.3-19.7s23.1-23.2,33.4-10.4
			s15.8,8.2,17,12.1c1.2,3.9,0.4,4.2,3.8,14.3s-3.3,37.8-9,39.9c-5.7,2.1,0.6,15.5-5,19.2s-23.1,13.6-20.1,0.3
			c3-13.3-16.1-2-13.3,1.3S816.8,181.8,814.9,170.3z"/>
	</g>
	<g class="st1">
		<path class="st2" d="M688.5,72.6c0,0-40.4-3.6-11.2-14.7c20.3-7.8,8.1-16.6,8.1-16.6S655.3,25.6,723,31.1
			C771.8,35,732.8,79.7,688.5,72.6z"/>
		<path d="M664,81.6c-2.4-7.3-12.7-20.8-6.3-22.6s31.2-0.4,36.3,3.3s27.6-1.5,24.8-5.1c-2.9-3.5-16.3,2.4-2.9-3.5s7.7-13-2.3-12.9
			c-10,0.1-38.4,7-28.1,0.5c10.3-6.5-14.7-2.6-20.4-3.3c-5.7-0.7,1.7-9,17.7-13.1s30.7-15.4,44.5-6.9s21.1,5.4,22.7,8
			s0.5,2.8,5.1,9.5s-4.4,25.1-11.9,26.5s0.7,10.3-6.6,12.8c-7.4,2.5-30.7,9-26.8,0.2c4-8.8-21.5-1.3-17.7,0.9
			C695.8,78.2,666.5,89.2,664,81.6z"/>
	</g>
	<g class="st1">
		<path class="st2" d="M708.5,417.6c0,0-40.4-3.6-11.2-14.7c20.3-7.8,8.1-16.6,8.1-16.6s-30.2-15.6,37.6-10.2
			C791.8,380,752.8,424.7,708.5,417.6z"/>
		<path d="M684,426.6c-2.4-7.3-12.7-20.8-6.3-22.6s31.2-0.4,36.3,3.3c5.1,3.7,27.6-1.5,24.8-5.1c-2.9-3.5-16.3,2.4-2.9-3.5
			c13.4-5.9,7.7-13-2.3-12.9c-10,0.1-38.4,7-28.1,0.5c10.3-6.5-14.7-2.6-20.4-3.3c-5.7-0.7,1.7-9,17.7-13.1s30.7-15.4,44.5-6.9
			s21.1,5.4,22.7,8s0.5,2.8,5.1,9.5c4.6,6.7-4.4,25.1-11.9,26.5s0.7,10.3-6.6,12.8c-7.4,2.5-30.7,9-26.8,0.2
			c4-8.8-21.5-1.3-17.7,0.9C715.8,423.2,686.5,434.2,684,426.6z"/>
	</g>
	<g class="st1">
		<path class="st2" d="M86.8,410.2c29.3,9.1,91.7,16.9,40.2-17.5S86.8,410.2,86.8,410.2z"/>
		<path d="M78.2,406.8c9.2-16.9,16.2-12.4,19-6.7c2.9,5.7,17.1-1.9,18.1,8.6c1,10.5-1,15.2-13.3,15.2S72.5,417.3,78.2,406.8z"/>
		<path d="M143,397.3c-8.6,8.6-1.9,11.4-2.9,19c-1,7.6,29.5,17.1,17.1,1.9S143,397.3,143,397.3z"/>
		<path d="M90.6,371.6c-12.7-0.7,3.8,21.9,18.1,17.1S123,373.5,90.6,371.6z"/>
	</g>
	<g class="st1">
		<path class="st2" d="M754.8,477.2c29.3,9.1,91.7,16.9,40.2-17.5C743.5,425.2,754.8,477.2,754.8,477.2z"/>
		<path d="M746.2,473.8c9.2-16.9,16.2-12.4,19-6.7s17.1-1.9,18.1,8.6c1,10.5-1,15.2-13.3,15.2S740.5,484.3,746.2,473.8z"/>
		<path d="M811,464.3c-8.6,8.6-1.9,11.4-2.9,19c-1,7.6,29.5,17.1,17.1,1.9C812.9,470,811,464.3,811,464.3z"/>
		<path d="M758.6,438.6c-12.7-0.7,3.8,21.9,18.1,17.1S791,440.5,758.6,438.6z"/>
	</g>
	<g class="st1">
		<path class="st2" d="M501.8,477.2c29.3,9.1,91.7,16.9,40.2-17.5S501.8,477.2,501.8,477.2z"/>
		<path d="M493.2,473.8c9.2-16.9,16.2-12.4,19-6.7c2.9,5.7,17.1-1.9,18.1,8.6c1,10.5-1,15.2-13.3,15.2
			C504.6,491,487.5,484.3,493.2,473.8z"/>
		<path d="M558,464.3c-8.6,8.6-1.9,11.4-2.9,19c-1,7.6,29.5,17.1,17.1,1.9C559.9,470,558,464.3,558,464.3z"/>
		<path d="M505.6,438.6c-12.7-0.7,3.8,21.9,18.1,17.1C538,451,538,440.5,505.6,438.6z"/>
	</g>
	<g class="st1">
		<path class="st2" d="M205,263c30.7-40.9,88-78,84-10s-60,93-73,59S196,275,205,263z"/>
		<path d="M201.1,255.3c-4.8,13.3-2.9,21,1,29.5c3.8,8.6,24.8,23.8,31.4,1c6.7-22.9,22.9-37.1,22.9-26.7c0,10.5-2.9,43.8-14.3,43.8
			s-48.6,15.2-27.6,23.8c21,8.6,104.8-10.5,90.5-34.3c-14.3-23.8-12.4-36.2-7.6-31.4s18.1-17.1,5.7-17.1s-13.3-28.6-17.1-31.4
			c-3.8-2.9-10.5-15.2-46.7-1C203,225.8,201.1,255.3,201.1,255.3z"/>
	</g>
	<g class="st1">
		<path class="st2" d="M632.8,494.9c25.3-33.8,72.7-64.4,69.4-8.3c-3.3,56.2-49.6,76.8-60.3,48.7
			C631.2,507.3,625.4,504.8,632.8,494.9z"/>
		<path d="M629.6,488.5c-3.9,11-2.4,17.3,0.8,24.4c3.1,7.1,20.5,19.7,26,0.8c5.5-18.9,18.9-30.7,18.9-22s-2.4,36.2-11.8,36.2
			s-40.1,12.6-22.8,19.7c17.3,7.1,86.5-8.7,74.7-28.3c-11.8-19.7-10.2-29.9-6.3-26s14.9-14.2,4.7-14.2c-10.2,0-11-23.6-14.2-26
			s-8.7-12.6-38.5-0.8C631.2,464.1,629.6,488.5,629.6,488.5z"/>
	</g>
	<g class="st1">
		<path class="st2" d="M517.2,155.3c27,43.4,40.9,110.2-21,81.9s-65-89.6-28.6-89.4C503.9,148,509.2,142.5,517.2,155.3z"/>
		<path d="M525.7,154.4c-10.7-9.3-18.5-10.2-27.9-9.8s-31.2,14.5-12.2,29s26.4,34.7,16.6,31c-9.8-3.8-39.8-18.5-35.7-29.2
			c4.1-10.7,3.3-50.8-12.2-34.4s-28.1,101.5-0.7,96.8s38.2,1.5,32.1,4.3c-6.2,2.7,9.4,23.1,13.9,11.5c4.5-11.5,31.5-2.1,35.5-4.6
			c4-2.5,18-4.3,17.8-43.2C552.6,166.8,525.7,154.4,525.7,154.4z"/>
	</g>
	<g class="st1">
		<path class="st2" d="M805.4,252.2c15.3,42.4,17.5,111.5-26.9,89.5c-44.4-22-38.8-86.4-10.6-91C796,246.2,800.9,239.7,805.4,252.2z
			"/>
		<path d="M812.1,250.2c-7.1-8.4-13-8.4-20.3-6.8c-7.3,1.7-26,19.4-13.2,32.3c12.8,12.9,16,33.4,8.9,30.6
			c-7.1-2.7-28.5-14.4-23.9-26.3c4.6-11.8,9.2-54.2-5-34.8s-34.9,111.1-13.1,102.6c21.8-8.5,29.4-3.3,24.3,0.4
			c-5.1,3.7,4.3,23.2,9.3,10.4s24.7-6.3,28.1-9.5c3.5-3.2,14.5-6.8,19.4-48S812.1,250.2,812.1,250.2z"/>
	</g>
	<g class="st1">
		<path class="st2" d="M525.1,278c0,0-3.4-14.7,6.2-8.6c6.7,4.3,9.7-2.8,9.7-2.8s4.2-15.3,10.2,9.2
			C555.4,293.5,527.2,295.2,525.1,278z"/>
		<path d="M518.7,275c6.2-11.2,13.3-16.2,15.2-11.4C535.9,268.3,508.2,294,518.7,275z"/>
		<path d="M541.6,283.5c1.9,7.6,26.7,25.7,29.5,8.6C574,275,541.6,283.5,541.6,283.5z"/>
	</g>
	<g class="st1">
		<path class="st2" d="M799.1,399c0,0-3.4-14.7,6.2-8.6c6.7,4.3,9.7-2.8,9.7-2.8s4.2-15.3,10.2,9.2
			C829.4,414.5,801.2,416.2,799.1,399z"/>
		<path d="M792.7,396c6.2-11.2,13.3-16.2,15.2-11.4C809.9,389.3,782.2,415,792.7,396z"/>
		<path d="M815.6,404.5c1.9,7.6,26.7,25.7,29.5,8.6C848,396,815.6,404.5,815.6,404.5z"/>
	</g>
	<g class="st1">
		<path class="st2" d="M415.1,498c0,0-3.4-14.7,6.2-8.6c6.7,4.3,9.7-2.8,9.7-2.8s4.2-15.3,10.2,9.2
			C445.4,513.5,417.2,515.2,415.1,498z"/>
		<path d="M408.7,495c6.2-11.2,13.3-16.2,15.2-11.4C425.9,488.3,398.2,514,408.7,495z"/>
		<path d="M431.6,503.5c1.9,7.6,26.7,25.7,29.5,8.6C464,495,431.6,503.5,431.6,503.5z"/>
	</g>
	<g class="st1">
		<path class="st2" d="M148.1,340c0,0-3.4-14.7,6.2-8.6c6.7,4.3,9.7-2.8,9.7-2.8s4.2-15.3,10.2,9.2
			C178.4,355.5,150.2,357.2,148.1,340z"/>
		<path d="M141.7,337c6.2-11.2,13.3-16.2,15.2-11.4C158.9,330.3,131.2,356,141.7,337z"/>
		<path d="M164.6,345.5c1.9,7.6,26.7,25.7,29.5,8.6C197,337,164.6,345.5,164.6,345.5z"/>
	</g>
	<g class="st1">
		<path class="st2" d="M13.1,355c0,0-3.4-14.7,6.2-8.6c6.7,4.3,9.7-2.8,9.7-2.8s4.2-15.3,10.2,9.2C43.4,370.5,15.2,372.2,13.1,355z"
			/>
		<path d="M6.7,352c6.2-11.2,13.3-16.2,15.2-11.4S-3.8,371,6.7,352z"/>
		<path d="M29.6,360.5c1.9,7.6,26.7,25.7,29.5,8.6S29.6,360.5,29.6,360.5z"/>
	</g>
	<g class="st1">
		<path class="st2" d="M348,338.4c0,0,20.4-8.7,16.7,2.8c-2.6,8,9.8,8.3,9.8,8.3s25.7-1.6-8.2,13.2C342,373.4,323.1,346.8,348,338.4
			z"/>
		<path d="M349,331.1c20.6,1.8,32.3,6.9,26.2,10.5C369,345.2,314,328,349,331.1z"/>
		<path d="M349.2,356.4c-10.5,4.6-23.6,35.3,4,31.7C380.9,384.5,349.2,356.4,349.2,356.4z"/>
	</g>
	<g class="st1">
		<path class="st2" d="M885.8,475.3c-18.7,35.5,45.7,84,63.5,35.5c17.7-48.5-65.3-95.2-48.5-65.3L885.8,475.3z"/>
		<path d="M925.6,431.3c-20.4,1.8-42.7-19.6-36.4-0.9c6.2,18.7,21.3,32,18.7,36.4c-2.7,4.4,10.7,24.9,14.2,16
			c3.6-8.9,5.3-14.2,9.8-16c4.4-1.8,17.8-11.6,10.7-21.3S925.6,431.3,925.6,431.3z"/>
		<path d="M901.6,534.5c2.4-14.7-3.6-25.8,8.9-20.4c12.4,5.3,35.8-15.5,38.8-3.3c3,12.2-7.7,31.7-16.6,32.6
			C923.8,544.2,899.8,545.1,901.6,534.5z"/>
		<path d="M870.5,481.1c10.7-6.2,16.9-6.2,21.3,2.7c4.4,8.9-3.6,24-3.6,32s14.2,14.2,4.4,15.1c-9.8,0.9-19.6,0-22.2-12.4
			C867.8,506,870.5,481.1,870.5,481.1z"/>
	</g>
	<g class="st1">
		<path class="st2" d="M346.7,216.8c0,0-5.8-19.9,10.5-11.6c11.3,5.7,16.5-3.8,16.5-3.8s7.1-20.6,17.2,12.5
			C398.3,237.7,350.3,240,346.7,216.8z"/>
		<path d="M341.9,183c16.2,9,12.9,14.8,15.4,22.2c2.4,7.4,33.2,20.2,25.1,26.6c-8.1,6.4-22.7,19.3-34,6.4
			c-11.3-12.8-35.6-25.7-25.9-38.5C332.2,186.8,341.9,183,341.9,183z"/>
		<path d="M374.2,188.1c-0.5,13.3-22.1,7.3-0.5,13.3c21.6,6,41-19.7,28-15.8S374.2,188.1,374.2,188.1z"/>
	</g>
	<g class="st1">
		<path class="st2" d="M899,54.4c0,0-16.3,4.4-8.9-10c5.1-10-2.3-15.1-2.3-15.1s-16.3-7.3,10.8-15.1C918.2,8.5,917.9,52.1,899,54.4z
			"/>
		<path d="M871.6,57.4c8-14.3,12.5-11.1,18.6-13c6-1.9,17.8-29.3,22.6-21.7c4.8,7.6,14.5,21.4,3.6,31.1S894,85.1,884.1,75.7
			C874.2,66.4,871.6,57.4,871.6,57.4z"/>
		<path d="M877.2,28.2c10.7,1,4.8,20.4,10.7,1c5.8-19.3-13.9-38-11.4-26.1C878.9,15.1,877.2,28.2,877.2,28.2z"/>
	</g>
	<g class="st1">
		<path class="st2" d="M416.7,431.8c0,0-5.8-19.9,10.5-11.6c11.3,5.7,16.5-3.8,16.5-3.8s7.1-20.6,17.2,12.5
			C468.3,452.7,420.3,455,416.7,431.8z"/>
		<path d="M411.9,398c16.2,9,12.9,14.8,15.4,22.2c2.4,7.4,33.2,20.2,25.1,26.6c-8.1,6.4-22.7,19.3-34,6.4
			c-11.3-12.8-35.6-25.7-25.9-38.5C402.2,401.8,411.9,398,411.9,398z"/>
		<path d="M444.2,403.1c-0.5,13.3-22.1,7.3-0.5,13.3c21.6,6,41-19.7,28-15.8S444.2,403.1,444.2,403.1z"/>
	</g>
	<g class="st1">
		<path class="st2" d="M475.2,377.4c0,0-15.1-1.3-6.3-8.5c6.1-5.1,0.3-10.1,0.3-10.1s-13.3-8.7,11.9-6.9
			C499.2,353.2,492.3,380.6,475.2,377.4z"/>
		<path d="M450.5,372.5c9.2-7,12.8-3.9,18.4-3.6c5.6,0.3,20.2-14,23.3-8.1s9.5,17-1.6,20.5c-11.1,3.5-24.5,14.2-31.9,5.8
			C451.4,378.8,450.5,372.5,450.5,372.5z"/>
		<path d="M459.9,355.5c9.3,3.3,1.2,14,9.3,3.3c8.1-10.7-6.6-27.4-6.2-19.3C463.4,347.6,459.9,355.5,459.9,355.5z"/>
	</g>
	<g class="st1">
		<path class="st2" d="M910.1,156c0,0-3.4-14.7,6.2-8.6c6.7,4.3,9.7-2.8,9.7-2.8s4.2-15.3,10.2,9.2
			C940.4,171.5,912.2,173.2,910.1,156z"/>
		<path d="M907.2,131c9.5,6.7,7.6,11,9,16.4c1.4,5.5,19.5,15,14.8,19.7s-13.3,14.3-20,4.8c-6.7-9.5-21-19-15.2-28.6
			C901.5,133.8,907.2,131,907.2,131z"/>
		<path d="M926.3,134.8c-0.3,9.8-13,5.4-0.3,9.8s24.1-14.6,16.5-11.7C934.9,135.7,926.3,134.8,926.3,134.8z"/>
	</g>
	<g class="st1">
		<path class="st2" d="M252.1,184c0,0-23.5,3.3-13.6-11.2c6.9-10.1-4.3-16-4.3-16s-24.3-9,14.9-15
			C277.4,137.6,279.6,183.2,252.1,184z"/>
		<path d="M227.8,178.1c6.6-8.2,14.2-5.3,17.1-1.2c2.9,4.1,18.9-8.8,17.7,1.2s-5.3,21.8-14.2,17.7
			C239.6,191.7,220.7,187,227.8,178.1z"/>
		<path d="M221.9,136.8c-1.1,12.4,5.2,25.2,12.3,20c7.1-5.2,17.8-14.1,19.5-11.1c1.8,2.9-2.9,18.3,5.3,10
			c8.3-8.3,23.6-11.2,4.1-18.3C243.8,130.4,222.5,130.4,221.9,136.8z"/>
		<path d="M264.4,164c-6,3.8,6.5,16.5,10.6,11.2C279.1,169.9,270.9,159.8,264.4,164z"/>
	</g>
	<g class="st1">
		<path class="st2" d="M45.1,162c0,0-23.5,3.3-13.6-11.2c6.9-10.1-4.3-16-4.3-16s-24.3-9,14.9-15C70.4,115.6,72.6,161.2,45.1,162z"
			/>
		<path d="M20.8,156.1c6.6-8.2,14.2-5.3,17.1-1.2c2.9,4.1,18.9-8.8,17.7,1.2c-1.2,10-5.3,21.8-14.2,17.7
			C32.6,169.7,13.7,165,20.8,156.1z"/>
		<path d="M14.9,114.8c-1.1,12.4,5.2,25.2,12.3,20c7.1-5.2,17.8-14.1,19.5-11.1c1.8,2.9-2.9,18.3,5.3,10s23.6-11.2,4.1-18.3
			C36.8,108.4,15.5,108.4,14.9,114.8z"/>
		<path d="M57.4,142c-6,3.8,6.5,16.5,10.6,11.2C72.1,147.9,63.9,137.8,57.4,142z"/>
	</g>
	<g class="st1">
		<path class="st2" d="M886.1,387c0,0-23.5,3.3-13.6-11.2c6.9-10.1-4.3-16-4.3-16s-24.3-9,14.9-15
			C911.4,340.6,913.6,386.2,886.1,387z"/>
		<path d="M861.8,381.1c6.6-8.2,14.2-5.3,17.1-1.2c2.9,4.1,18.9-8.8,17.7,1.2s-5.3,21.8-14.2,17.7S854.7,390,861.8,381.1z"/>
		<path d="M855.9,339.8c-1.1,12.4,5.2,25.2,12.3,20c7.1-5.2,17.8-14.1,19.5-11.1c1.8,2.9-2.9,18.3,5.3,10
			c8.3-8.3,23.6-11.2,4.1-18.3S856.5,333.4,855.9,339.8z"/>
		<path d="M898.4,367c-6,3.8,6.5,16.5,10.6,11.2C913.1,372.9,904.9,362.8,898.4,367z"/>
	</g>
	<g class="st1">
		<path class="st2" d="M664.1,342c0,0-23.5,3.3-13.6-11.2c6.9-10.1-4.3-16-4.3-16s-24.3-9,14.9-15
			C689.4,295.6,691.6,341.2,664.1,342z"/>
		<path d="M639.8,336.1c6.6-8.2,14.2-5.3,17.1-1.2c2.9,4.1,18.9-8.8,17.7,1.2s-5.3,21.8-14.2,17.7S632.7,345,639.8,336.1z"/>
		<path d="M633.9,294.8c-1.1,12.4,5.2,25.2,12.3,20c7.1-5.2,17.8-14.1,19.5-11.1c1.8,2.9-2.9,18.3,5.3,10
			c8.3-8.3,23.6-11.2,4.1-18.3S634.5,288.4,633.9,294.8z"/>
		<path d="M676.4,322c-6,3.8,6.5,16.5,10.6,11.2C691.1,327.9,682.9,317.8,676.4,322z"/>
	</g>
	<g class="st1">
		<path class="st2" d="M220,413c62,14,194,26,85-27S220,413,220,413z"/>
		<path d="M209.6,413.6c2.9-11.7-12.4-41.9,3.8-44.8c16.2-2.9,50.5-21.9,61.9-11.4c11.4,10.5,21,37.1,7.6,33.3
			c-13.3-3.8-9.5-21-21-9.5c-11.4,11.4,7.6,17.1-2.9,21c-10.5,3.8-12.4-4.8-17.1,4.8s24.8,1.9,20,10.5s-5.7,18.1-22.9,14.3
			C222,427.9,205.8,428.8,209.6,413.6z"/>
		<path d="M332.4,399.3c-13.7,4.2-21,9.5-10.5,16.2c10.5,6.7,9.5,7.6,1,17.1c-8.6,9.5,12.4,24.8,33.3,6.7
			C377.2,421.2,354.3,392.6,332.4,399.3z"/>
	</g>
	<g class="st1">
		<path class="st2" d="M656,258.3c10.9-39.5,7.7-115.8-53.3-34.1S656,258.3,656,258.3z"/>
		<path d="M658.5,263.7c-17.7,3.5-59.9,24.8-66.7,17.4c-6.8-7.5-40.3-17.7-26.7-28.4c13.7-10.7,51.5-27.4,48-18.6
			c-3.5,8.8-29.4,14.2-10.7,15.4c18.7,1.2,24.1-11.5,31.4-7.5c7.3,4-5.1,8.7,9.7,7.2s-1.1-14.2,12.3-15.3
			c13.4-1.2,27.6-4.8,24.7,6.1C677.6,250.8,681.6,259.1,658.5,263.7z"/>
		<path d="M618,203.7c8.3,5.6,17.4,7.2,25.6-1.4c8.2-8.5,9.7-8.4,25.2-7.9c15.4,0.5,34.6-17.4,4.6-20.8
			C643.2,170.1,604.6,194.8,618,203.7z"/>
	</g>
	<g class="st1">
		<path class="st2" d="M541,51c-6,62,88,181,82,72S541,51,541,51z"/>
		<path d="M529.3,51.9C554.1,31,556.9,38.5,576,36.6S614,39.5,606.4,48c-7.6,8.6-38.1,13.3-27.6,21s17.1,24.8-1,21
			c-18.1-3.8-21-1-23.8,9.5c-2.9,10.5-20,38.1-24.8,8.6S511.2,67.1,529.3,51.9z"/>
		<path d="M622.6,92.8c-18.1,21-24.8,12.4-19,28.6s-7.6,20-4.8,28.6c2.9,8.6,21,51.4,29.5,12.4c8.6-39,21.9-60,11.4-65.7
			S622.6,92.8,622.6,92.8z"/>
		<path d="M566.4,122.3c13.3-0.6,12.4,11.4,12.4,21c0,9.5,18.1,10.5,14.3,21c-3.8,10.5-1.9,33.3-21.9,11.4S545.5,123.3,566.4,122.3z
			"/>
	</g>
	<g class="st1">
		<path class="st2" d="M144.9,53c22.9-14.4,37.9-29.4,35.9,0.5c-2,29.9-17.8,48.5-31.4,29.4C132.5,59,144.9,53,144.9,53z"/>
		<path d="M134.8,72.8c10.4,0,12.3-24.7,17.6-12.3s0,34.2,10,21.4s13.8-59.8,19.5-45.5c5.7,14.2,17.1,56.9,6.2,59.8
			s-29.4,9-29.4,3.3c0-5.7-7.6,3.3-9.5-3.3S121.1,72.8,134.8,72.8z"/>
	</g>
	<g class="st1">
		<path class="st2" d="M328.5,494c-9.8,35.6,9.6,54.9,28.1,28.7C375.1,496.6,335.5,468.5,328.5,494z"/>
		<path d="M325,530.8c-0.6-14.6,9.7-35.2,14.6-23.7c4.9,11.5-3,37.7,9.1,21.9s17.6-49.2,20.1-31c2.4,18.2-4.3,23.7-4.3,27.3
			c0,3.6,9.1,17-0.6,12.8c-9.7-4.3-14.6-4.9-15.8,0.6c-1.2,5.5-9.7,9.1-10.9,3.6c-1.2-5.5-6.7,10.3-10.9,5.5S325,530.8,325,530.8z"
			/>
	</g>
	<g class="st1">
		<path class="st2" d="M15.4,478.2c-22,37.4,53.8,88.6,74.7,37.4s-76.9-100.4-57.1-68.9L15.4,478.2z"/>
		<path d="M24.4,430c-17,0.1,5.2,14.1,5.2,23.4s-8.4,17.5-3.1,22.8c5.2,5.3,16.7-4.1,26.2,3.4c9.4,7.5,0,11.2,10.5,17.8
			s-8.4,36.6-17.8,23.4S17,519,21.2,528.4c4.2,9.4,62.8,35.6,67,15C92.4,522.7,131.1,429,24.4,430z"/>
	</g>
	<g class="st1">
		<path class="st2" d="M63.1,229.2c0.9-4.1,36.3-17.5,44.7,3.1c19,46.7,78.3,6.2,43.8,36C117.1,298,51,339.2,47.3,291.9
			S63.1,229.2,63.1,229.2z"/>
		<path d="M45.7,211.3c-1.6,12.3-8,23.5-3.5,23.5s0.9,7.8-1.8,13.7c-2.7,5.9-6.2,23.5,0.9,16.6s11.5-17.6,19.5-25.5s1.8-1,12.4,1
			c10.6,2,20.4-22.5,23.1-11.8s-8.9,25.5,3.5,23.5c12.4-2,4.4-18.6,19.5-15.7s24-19.6,1.8-22.5s-49.7,2-45.3-10.8
			c4.4-12.7-2.7-21.5-8-12.7C62.6,199.5,46.6,204.4,45.7,211.3z"/>
		<path d="M39.5,313.1c-1.8-8.6,15.1-37.2,19.5-32.3c4.4,4.9,18.6,14.7,23.1,7.8c4.4-6.9,13.3-17.6,15.1-12.7
			c1.8,4.9,5.3,7.8,17.7,0s13.3-25.5,24.8-25.5c11.5,0,30.2-7.8,31.1,4.9C171.7,268.1,51,368.9,39.5,313.1z"/>
	</g>
	<g class="st1">
		<path class="st2" d="M543,392c0.4-25,36-84,65-36s52,70,13,70S542,450,543,392z"/>
		<path d="M536.4,355.2c3.8-11.5,41.9-17.1,41.9-4.8s3.8,36.2,3.8,36.2L567.9,399c0,0,21,12.4,24.8,1c3.8-11.4,25.7-2.9,24.8,1.9
			c-1,4.8,14.3,0,15.2-4.8c1-4.8,23.8,12.4,15.2,25.7c-8.6,13.3-25.7,25.7-46.7,24.8C580.2,446.6,505,449.5,536.4,355.2z"/>
		<path d="M620.2,354.2c-20.6-13.1-21.9,32.4-8.6,26.7C625,375.2,641.2,367.6,620.2,354.2z"/>
	</g>
	<g class="st1">
		<path class="st2" d="M230.8,59.2c25.4,23.9,91.7,16.9,40.2-17.5S230.8,59.2,230.8,59.2z"/>
		<path d="M227.6,51.7c2.2-15.2,14.3-58.1,22.9-36.2c8.6,21.9-1,27.6,0,39C251.4,66,224.8,71.7,227.6,51.7z"/>
		<path d="M262.9,46c-13.4,3.6-11.4,13.3-3.8,13.3C266.7,59.3,277.1,42.1,262.9,46z"/>
		<path d="M248.6,73.6c0,0,9.5-5.7,19-5.7s4.8-19,14.3-23.8s23.8,12.4,19,23.8S239,101.2,248.6,73.6z"/>
	</g>
	<g class="st1">
		<path class="st2" d="M374,255c-22,30,10,82,45,41s-36-60-29-44S374,255,374,255z"/>
		<path d="M354.1,266.6c2.3-11.9,29.5-20,31.4-6.7c1.9,13.3,2.9,42.9,10.5,34.3c7.6-8.6,15.2-15.2,12.4-25.7
			c-2.9-10.5,5.7-31.4,13.3-22.9s20,43.8,10.5,53.3S338.9,346.6,354.1,266.6z"/>
	</g>
	<g class="st1">
		<path class="st2" d="M733.1,228.6c35.1,8.8,65.9-39.5,17.9-33.9S733.1,228.6,733.1,228.6z"/>
		<path d="M733.5,237.4c-12.1-6.4-14.2-24.6-7-24.9s27.9,4.3,28.1-1.7s-7.6-23.2,4.1-21.9c11.7,1.3,33.4,0.2,27.4,19.3
			S753.1,247.7,733.5,237.4z"/>
	</g>
	<g class="st1">
		<path class="st2" d="M43.1,56.6C78.2,65.4,109,17.1,61,22.7S43.1,56.6,43.1,56.6z"/>
		<path d="M43.5,65.4c-12.1-6.4-14.2-24.6-7-24.9c7.2-0.4,27.9,4.3,28.1-1.7S57,15.5,68.7,16.8s33.4,0.2,27.4,19.3
			C90,55.2,63.1,75.7,43.5,65.4z"/>
	</g>
	<g class="st1">
		<path class="st2" d="M455.1,315.6c35.1,8.8,65.9-39.5,17.9-33.9S455.1,315.6,455.1,315.6z"/>
		<path d="M455.5,324.4c-12.1-6.4-14.2-24.6-7-24.9c7.2-0.4,27.9,4.3,28.1-1.7c0.2-6-7.6-23.2,4.1-21.9c11.7,1.3,33.4,0.2,27.4,19.3
			C502,314.2,475.1,334.7,455.5,324.4z"/>
	</g>
</g>
</svg>
