<?xml version="1.0" encoding="utf-8"?>
<!-- Generator: Adobe Illustrator 22.0.1, SVG Export Plug-In . SVG Version: 6.00 Build 0)  -->
<svg version="1.1" id="レイヤー_1" xmlns="http://www.w3.org/2000/svg" xmlns:xlink="http://www.w3.org/1999/xlink" x="0px"
	 y="0px" viewBox="0 0 1280 1024" style="enable-background:new 0 0 1280 1024;" xml:space="preserve">
<path d="M916.3,807.6l105.7-2.8c40,0,76-40.5,76-76V259.6c0-44.6-36.2-80.8-80.8-80.8H262.6c-44.5,0-80.6,36.1-80.6,80.6v469.2
	c0,39.1,36,70.1,70.1,70.1l114-0.2c8.2,0,16.1,2.8,22.4,8c4.2,3.4,11.2,5.9,23.3,15.3c31.7,24.5,58.7,20.5,58.8,21h44.3
	c0,0,39.9-1.3,41.3-10.2c1.7-10.2-14.3-16.1-34.3-17.5c0,0,67.6,0,67.6-17.2c0-17.2-59.8-16.9-59.8-16.9s78.7-3.6,78.7-20.7
	c0-21.5-78.9-20-78.9-20s46.3-7.7,51.5-14.2c5.7-7.2-1.4-25.3-100-23.9c2.9-0.4,17.3-4.2,28.8-15c4.2-4,6.1-12,0.9-14.5
	c-15.2-7.3-105.1-2.5-120.1,20h-73.9c-18.5,0-28.6-15-28.6-33.5l4.1-342.2c0-16.7,8.5-33.3,25.3-33.3h645.3
	c16.8,0,30.3,13.6,30.3,30.4l-0.7,352.4c0,16.6-13.4,30.1-30.1,30.3l-62.5,1.4c0,0-13.7-10.3-38.4-14.8c-47.9-8.6-120.8-9.3-120,8.1
	c0.2,5.4,26.8,14.8,31.7,19c0,0-72.4-6.3-68.4,16.2c4,14.5,61.5,17.8,61.5,17.8s-82.5-1.1-78.2,21.8c0,14.3,70,14.3,70,14.3
	s-57.8,7-47.8,22.7c10,15.7,106.4,7,106.4,7c-9,2.8-60.9,23.9-28.9,34.7c0,0,16.1,0.1,35.8-0.9c24-1.2,55.3,1,80.2-27.2
	C907.3,812.7,910.3,807.6,916.3,807.6z"/>
</svg>
