<?xml version="1.0" encoding="utf-8"?>
<!-- Generator: Adobe Illustrator 22.0.1, SVG Export Plug-In . SVG Version: 6.00 Build 0)  -->
<svg version="1.1" xmlns="http://www.w3.org/2000/svg" xmlns:xlink="http://www.w3.org/1999/xlink" x="0px" y="0px"
	 viewBox="0 0 1280 800" style="enable-background:new 0 0 1280 800;" xml:space="preserve">
<style type="text/css">
	.st0{fill:none;stroke:#FFFFFF;stroke-miterlimit:10;}
</style>
<g id="レイヤー_1">
	<path d="M784.4,695.6l237.6-4.2c40,0,76-40.5,76-76V146.1c0-44.6-36.2-80.8-80.8-80.8H262.6c-44.5,0-80.6,36.1-80.6,80.6v469.2
		c0,39.1,38,71.1,72.1,71.1l226.6,4.2c4.1,0,7.9,8,10.4,11.3c13,16.4,41.3,27.2,93.9,27.2c0,0,16.6,2.5,26.9-1.7
		c5.9-2.4,3.1-11.4,10.8-13c16.5-3.5,16.2-10.2,20.3-14.8c1.1-1.3,11.9,3,16.4-2.5c6.6-8,3.2-14.3,3.2-14.3s7.2,3.1,16.5-3.3
		c14.3-9.9-22-39.6-22-39.6c-1.1-17.6-19.8-44-33-49.2c2.3-0.3,6-1.1,8-11.1c0.4-2.3-11.9-2.9-12.3-6.6c-0.6-5.8-4.6-9.9-9.8-12.4
		c-15.2-7.3-90.8,3.4-118.3,25.5l-163.5-5c-16.9,0-35.3,0.2-40.5-25.5l3.3-351.7c0-16.7,9.5-33.3,26.3-33.3h646.3
		c16.8,0,29.3,13.6,29.3,30.4l0.3,354.4c0,16.6-13.4,30.1-30.1,30.3l-191.6,0.1c0,0-80.1-34.8-106.2-19.3c-7.2,4.3-5.6,5.7-5.6,5.7
		s-3.7-3.6-10-1.7c-6.9,1.4-6.5,9.8-11.4,9c-5.4-1-24.1-1-23.6-0.9c-0.5-0.1,30.1,47.8,30.1,47.8s35.4,43.4,34.8,43.4
		c-0.5,0-32.5,27.1-41.5,33.8c-1.1,0.8-2.2,1.5-3.4,2c-9.9,4.2-30.8,17.7-16.1,29.2c5.5,2.2,43.2-7.3,51.3-8
		c8.1-0.8,28.8-5.9,36.7-4.1c28.6,6.6,45.1-5.5,63.6-17.1C775.3,702,778.5,695.6,784.4,695.6z"/>
</g>
<g id="レイヤー_2">
	<path class="st0" d="M620.4,566.6c0,0-3.3,17.6,8.8,26.4c12.1,8.8,26.4,27.5,27.5,42.9c0,0,53.9,44,5.5,42.9
		c0,0,6.6,20.9-18.7,16.5c0,0-4.4,13.2-17.6,14.3c0,0-5.5-1.1-9.9,6.6c0,0,0,6.6-4.4,7.7"/>
</g>
</svg>
