<?xml version="1.0" encoding="utf-8"?>
<!-- Generator: Adobe Illustrator 22.0.1, SVG Export Plug-In . SVG Version: 6.00 Build 0)  -->
<svg version="1.1" id="レイヤー_1" xmlns="http://www.w3.org/2000/svg" xmlns:xlink="http://www.w3.org/1999/xlink" x="0px"
	 y="0px" viewBox="0 0 1280 1024" style="enable-background:new 0 0 1280 1024;" xml:space="preserve">
<style type="text/css">
	.st0{clip-path:url(#SVGID_2_);}
	.st1{clip-path:url(#SVGID_8_);fill:#FFFFFF;}
	.st2{clip-path:url(#SVGID_8_);}
	.st3{clip-path:url(#SVGID_8_);fill:none;stroke:#000000;stroke-width:31.5287;stroke-miterlimit:10;}
	.st4{clip-path:url(#SVGID_8_);fill:#CCCCCC;}
	.st5{clip-path:url(#SVGID_8_);fill:#666666;}
	
		.st6{clip-path:url(#SVGID_2_);fill:none;stroke:#000000;stroke-width:1.9705;stroke-linecap:round;stroke-linejoin:round;stroke-miterlimit:10;}
</style>
<g>
	<g>
		<defs>
			<rect id="SVGID_1_" x="325" y="127" width="693.1" height="820"/>
		</defs>
		<clipPath id="SVGID_2_">
			<use xlink:href="#SVGID_1_"  style="overflow:visible;"/>
		</clipPath>
		<g class="st0">
			<defs>
				<rect id="SVGID_3_" x="325" y="127" width="693.1" height="820"/>
			</defs>
			<clipPath id="SVGID_4_">
				<use xlink:href="#SVGID_3_"  style="overflow:visible;"/>
			</clipPath>
		</g>
		<g class="st0">
			<defs>
				<rect id="SVGID_5_" x="325" y="127" width="693.1" height="820"/>
			</defs>
			<clipPath id="SVGID_6_">
				<use xlink:href="#SVGID_5_"  style="overflow:visible;"/>
			</clipPath>
		</g>
		<g class="st0">
			<defs>
				<rect id="SVGID_7_" x="325" y="127" width="693.1" height="820"/>
			</defs>
			<clipPath id="SVGID_8_">
				<use xlink:href="#SVGID_7_"  style="overflow:visible;"/>
			</clipPath>
			<path class="st1" d="M733,908.3c-4.2,0-8.3-0.4-12.4-1.3l-286.9-87.2l-0.6-0.1c-31.6-7.1-51.7-38.3-45.1-69.9L587,190.1l0.2-0.9
				c3-13.5,10.7-25.6,21.6-34c10.4-8,23.2-12.4,36.2-12.4c4.3,0,8.6,0.5,12.8,1.4l297.9,76.2l0.2,0.1c15.5,3.5,28.6,12.7,37.1,26.1
				c8.3,13.1,11.1,28.6,8,43.7l-210,570.6l-0.2,1c-5.1,22.8-23.2,40.5-46.1,45.2C740.9,907.9,737,908.3,733,908.3"/>
			<path class="st2" d="M645.1,127v31.5c3,0,6.1,0.3,9.1,1l297.4,76.1l0.5,0.1l0.5,0.1c22.8,5.1,37.5,27.4,33.3,50.2L776.6,854.5
				l-0.7,2l-0.5,2c-3.7,16.7-17,29.8-33.8,33.2c-2.8,0.6-5.7,0.9-8.6,0.9c-2.8,0-5.7-0.3-8.6-0.9l-285.7-86.8l-1.1-0.3l-1.2-0.3
				c-11.3-2.5-21-9.3-27.3-19.2c-5.9-9.3-8.1-20.4-6.1-31.2l198.4-557.7l0.6-1.8l0.4-1.9c2.2-10,7.7-18.7,15.9-24.9
				c7.6-5.9,17-9.1,26.6-9.1L645.1,127 M645,127c-16.9,0-32.9,5.7-45.8,15.7c-13.4,10.3-23.4,25.2-27.4,43L372.8,745.4
				c-9,40.5,16.4,80.6,56.9,89.6l287,87.2c5.5,1.2,11,1.8,16.4,1.8c5,0,10-0.5,14.9-1.5c28.1-5.7,51.7-27.4,58.3-57.2l210.1-570.7
				c9-40.5-16.4-80.6-56.9-89.6l-297.9-76.2C656,127.6,650.5,127,645,127"/>
			<path class="st1" d="M689.2,924c-4.2,0-8.3-0.4-12.4-1.3l-286.9-87.2l-0.6-0.1c-31.6-7.1-51.7-38.3-45.1-69.9l199.1-559.7
				l0.2-0.9c6-26.9,30.3-46.4,57.8-46.4c4.3,0,8.6,0.5,12.8,1.4l297.9,76.2l0.2,0.1c31.6,7.1,51.7,38.2,45.1,69.8l-210,570.6l-0.2,1
				C741,904.5,716.7,924,689.2,924"/>
			<path class="st2" d="M601.2,142.7v31.5c3,0,6.1,0.3,9.1,1l297.4,76.1l0.5,0.1l0.5,0.1c22.8,5.1,37.5,27.4,33.3,50.2L732.8,870.1
				l-0.7,2l-0.5,2c-4.4,19.7-22.2,34.1-42.4,34.1c-2.8,0-5.7-0.3-8.6-0.8L395,820.6l-1.1-0.3l-1.2-0.3c-11.3-2.5-21-9.3-27.3-19.2
				c-5.9-9.3-8.1-20.4-6.1-31.2l198.4-557.7l0.6-1.8l0.4-1.9c4.4-19.7,22.2-34.1,42.4-34.1L601.2,142.7 M601.2,142.7
				c-34.4,0-65.4,23.8-73.2,58.7L328.9,761.1c-9,40.5,16.4,80.6,56.9,89.6l287,87.2c5.5,1.2,11,1.8,16.4,1.8
				c34.4,0,65.4-23.8,73.2-58.7l210.1-570.7c9-40.5-16.4-80.6-56.9-89.6l-297.9-76.2C612.1,143.3,606.6,142.7,601.2,142.7"/>
			<polygon class="st1" points="387.4,737 560.2,240.3 906.4,323.5 723.3,830.3 			"/>
			<path class="st2" d="M570.4,259l315.1,75.7L713.4,811.2l-305.6-84.8L570.4,259z M550,221.7L366.9,747.7l366.2,101.6l194.1-537.1
				L550,221.7z"/>
			<path class="st1" d="M611.7,200.3c-0.4,0-0.7,0-1.1-0.1c-2.7-0.6-4.3-3.2-3.8-5.9c0.6-2.5,2.8-3.9,4.8-3.9c0.4,0,0.7,0,1.1,0.1
				c1.7,0.4,2.7,1.5,3.1,2.2c0.4,0.6,1,2,0.7,3.7C615.9,199,613.6,200.3,611.7,200.3"/>
			<path class="st2" d="M611.6,174.7c-9.5,0-18,6.6-20.2,16.2c-2.5,11.2,4.5,22.2,15.7,24.7c1.5,0.3,3,0.5,4.5,0.5
				c9.5,0,18-6.6,20.2-16.2c2.5-11.2-4.5-22.2-15.7-24.7C614.7,174.8,613.1,174.7,611.6,174.7"/>
			<line class="st1" x1="527" y1="208.7" x2="968.8" y2="313.7"/>
			<line class="st3" x1="527" y1="208.7" x2="968.8" y2="313.7"/>
			<path class="st4" d="M730.1,902.1c-5.2,0-10.3-0.6-15.4-1.7l-272.9-82.9c-38-8.5-61.9-46.2-53.4-84.1L577.7,201
				c3.6-16.1,12.7-30.5,25.7-40.5c12.3-9.5,27.6-14.7,43-14.7c5.2,0,10.3,0.6,15.4,1.7L945.2,220c18.4,4.1,34,15.1,44.1,31
				c10.1,15.9,13.4,34.7,9.3,53.1L798.8,846.8c-6.1,27.2-27.6,48.3-54.8,53.8C739.4,901.6,734.7,902.1,730.1,902.1"/>
			<path class="st5" d="M646.4,144.8v2c5.1,0,10.2,0.6,15.1,1.7L945,220.9c18.1,4,33.5,14.9,43.5,30.6c9.9,15.6,13.2,34.2,9.2,52.2
				L797.8,846.5l0,0.1l0,0.1c-6,26.7-27.1,47.5-54,52.9c-4.5,0.9-9.1,1.4-13.7,1.4c-5.1,0-10.1-0.6-15.1-1.7L442,816.5l-0.1,0
				l-0.1,0c-18.1-4-33.5-14.9-43.5-30.6c-9.9-15.6-13.2-34.2-9.2-52.2l189.4-532.4l0-0.1l0-0.1c3.5-15.8,12.5-29.9,25.3-39.8
				c12.1-9.3,27.2-14.5,42.4-14.5L646.4,144.8 M646.4,144.8c-16,0-31.3,5.4-43.6,14.9c-12.7,9.8-22.3,24-26,40.9L387.3,733.1
				c-8.6,38.5,15.6,76.7,54.1,85.2l273,83c5.2,1.2,10.5,1.7,15.6,1.7c4.8,0,9.5-0.5,14.1-1.4c26.7-5.4,49.1-26.1,55.5-54.4
				l199.8-542.9c8.6-38.5-15.6-76.7-54.1-85.2L662,146.5C656.7,145.3,651.5,144.8,646.4,144.8"/>
			<path class="st4" d="M688.4,917c-5.2,0-10.3-0.6-15.4-1.7L400,832.3c-18.4-4.1-34.1-15.1-44.2-31c-10.1-15.9-13.4-34.7-9.3-53.1
				L536,215.9c7.2-32,36-55.2,68.7-55.2c5.2,0,10.3,0.6,15.4,1.7l283.4,72.5c37.9,8.5,61.9,46.2,53.4,84.1L757.1,861.8
				C749.9,893.8,721,917,688.4,917"/>
			<path class="st2" d="M604.7,159.7v2h0c5.1,0,10.2,0.6,15.1,1.7l283.5,72.5c18.1,4,33.5,14.9,43.5,30.5
				c9.9,15.6,13.2,34.2,9.2,52.2L756.1,861.4l0,0.1l0,0.1c-3.5,15.5-12.2,29.4-24.6,39.3c-12.2,9.7-27.5,15-43.1,15
				c-5.1,0-10.1-0.6-15.1-1.7l-272.9-82.9l-0.1,0l-0.1,0c-18.1-4-33.5-14.9-43.5-30.6c-9.9-15.6-13.2-34.2-9.2-52.2l189.4-532.4
				l0-0.1l0-0.1c3.5-15.5,12.2-29.4,24.6-39.3c12.2-9.7,27.5-15,43.1-15L604.7,159.7 M604.7,159.7c-32.7,0-62.2,22.6-69.6,55.9
				L345.6,748c-8.6,38.5,15.6,76.7,54.1,85.2l273,83c5.2,1.2,10.5,1.7,15.6,1.7c32.7,0,62.2-22.6,69.6-55.9l199.8-542.9
				c8.6-38.5-15.6-76.7-54.1-85.2l-283.4-72.5C615,160.2,609.8,159.7,604.7,159.7"/>
			<polygon class="st4" points="383.1,734.6 556.6,236 913.4,321.7 729.5,830.8 			"/>
			<path class="st2" d="M557.2,237.1l354.9,85.3L728.9,829.6L384.3,734L557.2,237.1z M556,234.8L381.8,735.3L730.1,832L914.7,321
				L556,234.8z"/>
			<path class="st4" d="M614.6,228.5c-1.4,0-2.8-0.2-4.1-0.5c-10.1-2.3-16.4-12.3-14.2-22.4c1.9-8.5,9.6-14.6,18.3-14.6
				c1.4,0,2.7,0.2,4.1,0.5c10.1,2.3,16.4,12.3,14.2,22.4C631,222.4,623.3,228.5,614.6,228.5"/>
			<path class="st2" d="M614.6,192.1L614.6,192.1c1.3,0,2.6,0.1,3.9,0.4c9.5,2.1,15.6,11.6,13.4,21.2c-1.8,8-9.1,13.9-17.3,13.9
				c-1.3,0-2.6-0.1-3.9-0.4c-9.5-2.1-15.6-11.6-13.4-21.2C599.1,197.9,606.4,192.1,614.6,192.1 M614.6,190.1
				c-9,0-17.2,6.2-19.2,15.4c-2.4,10.6,4.3,21.2,14.9,23.5c1.4,0.3,2.9,0.5,4.3,0.5c9,0,17.2-6.2,19.2-15.4
				c2.4-10.6-4.3-21.2-14.9-23.5C617.5,190.3,616,190.1,614.6,190.1"/>
			<line class="st1" x1="534.1" y1="222.5" x2="954.4" y2="322.4"/>
			<polyline class="st2" points="533.9,223.2 954.2,323.1 954.5,321.7 534.2,221.7 			"/>
			<line class="st1" x1="760.9" y1="850" x2="351.3" y2="734.9"/>
			<polyline class="st2" points="761.2,849.1 351.6,733.9 351.1,735.8 760.7,851 			"/>
		</g>
		<line class="st6" x1="442" y1="468.9" x2="534.6" y2="457"/>
		<line class="st6" x1="382.9" y1="642.3" x2="542.5" y2="579.2"/>
		<line class="st6" x1="510.9" y1="591" x2="512.9" y2="541.8"/>
		<line class="st6" x1="544.4" y1="541.8" x2="512.9" y2="541.8"/>
		<line class="st6" x1="556.3" y1="522.1" x2="544.4" y2="541.8"/>
		<line class="st6" x1="526.7" y1="585.1" x2="556.3" y2="596.9"/>
		<line class="st6" x1="534.6" y1="531.9" x2="542.5" y2="579.2"/>
		<line class="st6" x1="560.2" y1="610.7" x2="556.3" y2="555.6"/>
		<line class="st6" x1="544.4" y1="541.8" x2="556.3" y2="555.6"/>
		<line class="st6" x1="556.3" y1="596.9" x2="576" y2="571.3"/>
		<line class="st6" x1="556.3" y1="555.6" x2="589.8" y2="583.2"/>
		<line class="st6" x1="605.5" y1="526" x2="556.3" y2="555.6"/>
		<line class="st6" x1="558.2" y1="498.4" x2="605.5" y2="526"/>
		<line class="st6" x1="644.9" y1="526" x2="605.5" y2="526"/>
		<line class="st6" x1="637.1" y1="569.4" x2="605.5" y2="526"/>
		<line class="st6" x1="851.8" y1="222.5" x2="918.8" y2="210.7"/>
		<line class="st6" x1="867.6" y1="220.6" x2="875.5" y2="228.5"/>
		<line class="st6" x1="828.2" y1="279.7" x2="863.7" y2="224.5"/>
		<line class="st6" x1="840" y1="262" x2="794.7" y2="271.8"/>
		<line class="st6" x1="828.2" y1="279.7" x2="836.1" y2="303.3"/>
		<line class="st6" x1="558.2" y1="498.4" x2="672.5" y2="488.6"/>
		<line class="st6" x1="644.9" y1="526" x2="672.5" y2="488.6"/>
		<line class="st6" x1="658.7" y1="610.7" x2="644.9" y2="526"/>
		<line class="st6" x1="723.8" y1="565.4" x2="644.9" y2="526"/>
		<line class="st6" x1="672.5" y1="488.6" x2="684.4" y2="459"/>
		<line class="st6" x1="704.1" y1="555.6" x2="684.4" y2="472.8"/>
		<line class="st6" x1="658.7" y1="610.7" x2="743.5" y2="679.7"/>
		<line class="st6" x1="650.9" y1="567.4" x2="615.4" y2="565.4"/>
		<line class="st6" x1="658.7" y1="610.7" x2="644.9" y2="644.2"/>
		<line class="st6" x1="713.9" y1="656.1" x2="713.9" y2="679.7"/>
		<line class="st6" x1="438" y1="620.6" x2="461.7" y2="575.3"/>
		<path class="st6" d="M445.9,567.4l15.8,9.9L445.9,567.4z"/>
		<line class="st6" x1="806.5" y1="287.6" x2="808.5" y2="287.6"/>
		<line class="st6" x1="771.1" y1="322.1" x2="773" y2="322.1"/>
		<line class="st6" x1="806.5" y1="287.6" x2="808.5" y2="287.6"/>
		<line class="st6" x1="568.1" y1="336.8" x2="570.1" y2="336.8"/>
		<line class="st6" x1="820.3" y1="325" x2="822.3" y2="325"/>
		<line class="st6" x1="773" y1="287.6" x2="775" y2="287.6"/>
		<line class="st6" x1="775" y1="612.7" x2="777" y2="612.7"/>
		<line class="st6" x1="526.7" y1="737.8" x2="528.7" y2="737.8"/>
		<line class="st6" x1="775" y1="612.7" x2="777" y2="612.7"/>
		<line class="st6" x1="459.7" y1="752.6" x2="461.7" y2="752.6"/>
		<line class="st6" x1="576" y1="740.8" x2="577.9" y2="740.8"/>
		<line class="st6" x1="741.5" y1="612.7" x2="743.5" y2="612.7"/>
		<line class="st6" x1="775" y1="612.7" x2="777" y2="612.7"/>
		<line class="st6" x1="648.9" y1="766.4" x2="650.9" y2="766.4"/>
		<line class="st6" x1="775" y1="612.7" x2="777" y2="612.7"/>
		<line class="st6" x1="459.7" y1="752.6" x2="461.7" y2="752.6"/>
		<line class="st6" x1="576" y1="740.8" x2="577.9" y2="740.8"/>
		<line class="st6" x1="741.5" y1="612.7" x2="743.5" y2="612.7"/>
		<line class="st6" x1="777" y1="370.3" x2="778.9" y2="370.3"/>
		<line class="st6" x1="605.5" y1="404.8" x2="607.5" y2="404.8"/>
		<line class="st6" x1="777" y1="370.3" x2="778.9" y2="370.3"/>
		<line class="st6" x1="509" y1="575.3" x2="510.9" y2="575.3"/>
		<line class="st6" x1="790.8" y1="407.8" x2="792.7" y2="407.8"/>
		<line class="st6" x1="607.5" y1="370.3" x2="609.5" y2="370.3"/>
		<line class="st6" x1="532.6" y1="786.1" x2="534.6" y2="786.1"/>
		<line class="st6" x1="497.2" y1="820.6" x2="499.1" y2="820.6"/>
		<line class="st6" x1="532.6" y1="786.1" x2="534.6" y2="786.1"/>
		<line class="st6" x1="449.9" y1="742.8" x2="451.8" y2="742.8"/>
		<line class="st6" x1="566.1" y1="730.9" x2="568.1" y2="730.9"/>
		<line class="st6" x1="499.1" y1="786.1" x2="501.1" y2="786.1"/>
		<line class="st6" x1="532.6" y1="786.1" x2="534.6" y2="786.1"/>
		<line class="st6" x1="497.2" y1="820.6" x2="499.1" y2="820.6"/>
		<line class="st6" x1="532.6" y1="786.1" x2="534.6" y2="786.1"/>
		<line class="st6" x1="449.9" y1="742.8" x2="451.8" y2="742.8"/>
		<line class="st6" x1="566.1" y1="730.9" x2="568.1" y2="730.9"/>
		<line class="st6" x1="499.1" y1="786.1" x2="501.1" y2="786.1"/>
	</g>
</g>
</svg>
