<?xml version="1.0" encoding="UTF-8" standalone="no"?>
<svg width="72px" height="68px" viewBox="0 0 72 68" version="1.1" xmlns="http://www.w3.org/2000/svg" xmlns:xlink="http://www.w3.org/1999/xlink">
    <!-- Generator: Sketch 50.2 (55047) - http://www.bohemiancoding.com/sketch -->
    <title>icon-online</title>
    <desc>Created with Sketch.</desc>
    <defs></defs>
    <g id="Page-1" stroke="none" stroke-width="1" fill="none" fill-rule="evenodd">
        <g id="cover/online" transform="translate(-112.000000, -98.000000)" fill="#FFFFFF">
            <path d="M148,98 C157.91554,98 166.394336,101.492918 173.436625,108.478873 C180.478904,115.464828 184,123.971781 184,134 C184,140.535247 182.394382,146.591522 179.183104,152.169009 C175.971815,157.746507 171.605659,162.112661 166.084507,165.267606 L162.366197,159.014085 C166.760585,156.422523 170.281681,152.901432 172.929572,148.450699 C175.577474,143.999977 176.901408,139.183124 176.901408,134 C176.901408,126.11264 174.084536,119.352142 168.450704,113.71831 C162.816873,108.084478 156.00004,105.267606 148,105.267606 C139.99996,105.267606 133.183127,108.084478 127.549296,113.71831 C121.915465,119.352142 119.098592,126.11264 119.098592,134 C119.098592,139.295803 120.394354,144.140823 122.985915,148.535211 C125.577483,152.929599 129.070401,156.422523 133.464789,159.014085 L129.915493,165.267606 C124.394341,162.112661 120.028185,157.746507 116.816901,152.169009 C113.605618,146.591522 112,140.535247 112,134 C112,123.971781 115.521092,115.464828 122.56338,108.478873 C129.605664,101.492918 138.08446,98 148,98 Z M169.633803,134 C169.633803,137.94368 168.647896,141.577445 166.676062,144.901414 C164.704216,148.225372 162.084525,150.845063 158.816901,152.760563 L155.267606,146.507042 C160.000022,143.690126 162.366197,139.521152 162.366197,134 C162.366197,130.05632 160.957761,126.676071 158.140845,123.859155 C155.323929,121.042239 151.94368,119.633803 148,119.633803 C144.05632,119.633803 140.676071,121.042239 137.859155,123.859155 C135.042239,126.676071 133.633803,130.05632 133.633803,134 C133.633803,139.521152 135.999978,143.690126 140.732394,146.507042 L137.183099,152.760563 C133.915475,150.845063 131.295784,148.225372 129.323938,144.901414 C127.352104,141.577445 126.366197,137.94368 126.366197,134 C126.366197,128.02814 128.478857,122.929594 132.70422,118.70422 C136.929594,114.478857 142.02814,112.366197 148,112.366197 C153.97186,112.366197 159.070406,114.478857 163.29578,118.70422 C167.521143,122.929594 169.633803,128.02814 169.633803,134 Z M148,126.901408 C149.9155,126.901408 151.60563,127.605632 153.070423,129.01409 C154.535215,130.422537 155.267606,132.0845 155.267606,134 C155.267606,135.9155 154.535215,137.60563 153.070423,139.070423 C151.60563,140.535215 149.9155,141.267606 148,141.267606 C146.0845,141.267606 144.39437,140.535215 142.929577,139.070423 C141.464785,137.60563 140.732394,135.9155 140.732394,134 C140.732394,132.0845 141.464785,130.422537 142.929577,129.01409 C144.39437,127.605632 146.0845,126.901408 148,126.901408 Z" id="icon-online"></path>
        </g>
    </g>
</svg>
