<?xml version="1.0" encoding="utf-8"?>
<!-- Generator: Adobe Illustrator 22.0.1, SVG Export Plug-In . SVG Version: 6.00 Build 0)  -->
<svg version="1.1" id="レイヤー_1" xmlns="http://www.w3.org/2000/svg" xmlns:xlink="http://www.w3.org/1999/xlink" x="0px"
	 y="0px" viewBox="0 0 1620 1620" style="enable-background:new 0 0 1620 1620;" xml:space="preserve">
<style type="text/css">
	.st0{fill:#C0AAFF;}
	.st1{fill:none;stroke:#EBFFD6;stroke-width:6;stroke-miterlimit:10;}
	.st2{fill:#EBFFD6;}
	.st3{fill:#FFFFFF;}
</style>
<g>
	<g>
		<g>
			<path class="st0" d="M1390.5,121.5c13.7,0,24.9,11.2,24.9,24.9v797.2c0,13.7-11.2,24.9-24.9,24.9H214.8
				c-13.7,0-24.9-11.2-24.9-24.9V146.4c0-13.7,11.2-24.9,24.9-24.9H1390.5 M1390.5,112.5H214.8c-18.7,0-33.9,15.2-33.9,33.9v797.2
				c0,18.7,15.2,33.9,33.9,33.9h1175.7c18.7,0,33.9-15.2,33.9-33.9V146.4C1424.4,127.7,1409.3,112.5,1390.5,112.5L1390.5,112.5z"/>
		</g>
	</g>
	<g>
		<path class="st0" d="M1309.4,921.3H296c-28.6,0-51.7-23.2-51.7-51.7v-649c0-28.6,23.2-51.7,51.7-51.7h1013.4
			c28.6,0,51.7,23.2,51.7,51.7v649C1361.1,898.1,1338,921.3,1309.4,921.3z"/>
	</g>
	<g>
		<path class="st1" d="M729.2,858H880c5.4,0,9.8-4.4,9.8-9.8v-7.3c0-4.9-4-8.8-8.8-8.8H737.1c-4.3,0-7.8-3.5-7.8-7.8v-8.5
			c0-4,3.3-7.3,7.3-7.3H882c4.3,0,7.8-3.5,7.8-7.8v-3.4c0-4.3-3.4-7.7-7.7-7.7H737.9c-4.8,0-8.7-3.9-8.7-8.7V778
			c0-4.1,3.3-7.3,7.3-7.3H882c4.3,0,7.8-3.5,7.8-7.8v-2.5c0-4.7-3.8-8.6-8.6-8.6H738.6c-5.2,0-9.4-4.2-9.4-9.4v-1.1
			c0-4.6,3.8-8.4,8.4-8.4h141.8c5.8,0,10.5-4.7,10.5-10.5v-2.7c0-4.5-3.6-8.1-8.1-8.1H739.1c-5.4,0-9.8-4.4-9.8-9.8V700
			c0-4,3.3-7.3,7.3-7.3h122.7c1.5,0,3-0.2,4.5-0.5l30.8-6.6"/>
		<path class="st1" d="M875.7,669.1c37.8-28.3,2.4-73.2,30.7-103.9c101.6-103.9,99.2-323.6-94.5-333
			c-203.1-4.7-226.7,226.7-106.3,321.2c42.5,33.1,7.5,76.2,35.4,125.2"/>
		<g>
			<g>
				<path class="st2" d="M788.8,679.3c2.9-7.7,7.2-15.3,7.2-23.5c0-11.5,0-23.1,0-34.6c0-32,0-64,0-96c0-4,0-8,0-12
					c0-4.6-3.4-6.9-5.9-10.7c-4.4-6.5-12.7-6.7-19.8-8.4c-9.8-2.3-19.5-4.8-29.1-7.8c-3.3-1-7.1-2-10.1-3.8
					c-5.8-3.6-5.4-11.9-5.5-18c-0.1-7.5,3.9-15.2,7-22c3.1-6.7,6.8-12.7,12.1-18c4.1-4,7.2-9.5,12-12.8c2.6-1.7,5.7-2.9,8.5-4.2
					c2.8-1.3,5.6-3.3,8.6-4.2c4.4-1.3,8.8-1.1,13.1-3c4.1-1.8,7.4-2.7,11.9-2.2c3.8,0.4,7.7,1.3,11.5,1.3c6.5,0,12.7-2.8,18.6,1.3
					c4.6,3.1,4.9,8.1,0.6,11.5c-5.4,4.3-10.2,7.9-13.3,14.4c-3,6.3-3.9,13.3-5.7,20c-0.6,2.2-2.3,10.3-5,10.1
					c-1.6-0.1-2.6-9.3-3-11.2c-0.9-4.4-1.5-13.3-6.2-15.7c-6-3.1-18.1,2.6-17.9,9.7c0.1,3.6,1.6,7,2.1,10.5c0.4,3.2-1,5.9-2.9,8.5
					c-0.2,0.3-1.3,2.1-1.7,2c1.6,0.1,0.3-3.6,0.2-4.2c-0.8-4.4-0.7-9.3-0.8-13.8c-0.1-4.3,0-8.5,0.2-12.8c0.1-2.2-0.2-4.1,1.5-5.5
					c1.9-1.5,4.7-0.9,7.1-0.8c7.2,0.1,15.2,1.3,22.4,0c4.4-0.8,6.8-2.8,6.7-7.4c-0.1-3.6-1.5-8.4-4.4-10.7c-4.3-3.5-11,0.7-15.4,2.1
					c-7.6,2.4-15.7,2.1-23.3,4.5c-5.4,1.7-10.6,4.5-14.1,9.1c-2.5,3.3-3.5,7.5-4.8,11.4c-1.6,4.7-3,9.9-5.4,14.3
					c-2.9,5.4-6.4,10.5-9.2,16c-3.5,7-4.1,18.7,6,20c8.7,1.2,15.2-6.9,16.7-14.6c0.4-2.2,0.8-4.4,1.3-6.6c0.1-0.4,0.9-2,0.7-2.4
					c-0.2-0.5-3.3-0.3-3.3-0.5c0,0,0.5,1.2,0.5,1.1c0.3,3.8,2.6,8.4,3.8,12c1.1,3.5,2.1,7.2,4.1,10.2c2.4,3.6,4.4,8.2,7.7,11
					c8,7,13.2-7.7,18.4-11.2c1.8-1.2,9.7-7,10.6-6c1.7,2-2.4,11.5-2.8,13.8c-0.6,3.2-1.3,7.8,1.6,10.2c2.6,2.1,6.4,1,9.2-0.1
					c3.9-1.6,7.9-3.9,10.7-7.1c3.6-4,2.8-9.3,2.5-14.3c-0.4-6.7-0.7-14.4,3.6-20c3.3-4.3,9.4-5.5,14.6-5.8c2.3-0.1,4.7-0.1,7,0.4
					c1.2,0.3,2.2,0.7,3.3,1.3c0.3,0.1,0.8,0.5,1,0.8c-0.2-0.4,0.1-0.9-0.3,0.1c-0.8,2-3.1,3.9-4.5,5.6c-1.7,2-2.8,4-5,5.5
					c-8.3,5.3-21,17.9-13.6,28.8c2.7,4,8.4,5.3,12.3,2.3c3.7-2.9,3.2-7.7,5.6-11.3c3.1-4.7,10.5,0.7,14.9,1c5.3,0.3,8.9-3.1,10.4-8
					c3.7-12.2-1.1-26.8-9.8-35.6c-4.1-4.1-9.2-7.2-14.7-9.1c-2.9-1-5.9-1.6-8.9-1.9c-1.6-0.2-12.7,1-12.4-2.1
					c-0.7,1-1.5,1.9-2.2,2.9c10-1.9,16.4-8.1,21.3-16.5c1.2-2,2.6-3.9,3.3-6.1c0.6-1.8-0.1-4.2,0.7-5.8c1.4-2.9,5.9-1.2,7.8,0.2
					c4.6,3.4,1.7,6.7-0.5,10.7c-1.9,3.5-2.9,6.9-0.9,10.6c1,1.8,2.5,3.2,3.7,4.8c1.2,1.6,2,3.5,3.3,5.1c2.4,2.8,6,4.6,9.7,4.1
					c6.9-1,8.1-8.9,8.3-14.6c0.1-3.1,0-6.2-0.1-9.3c0-0.6,0.3-2.2,0-2.8c-0.6-1.1-3.7-0.3-2.8,1.2c0.3,0.4,2.1,1.2,2.5,1.4
					c3.3,1.8,7.6,3.6,10,6.5c3.8,4.6,5.8,12.4,7.7,18c1.8,5.4,3.1,10.9,4.1,16.4c0.5,3,1,5.9,1.3,8.9c0.2,1.6,1.6,7.9-0.3,9.2
					c-2.4,1.8-4-4.5-4.5-5.8c-0.8-1.8-1.6-3.6-2.4-5.4c-1.4-3.3-2.5-6.6-3.7-9.9c-1.6-4.5-2.7-9.3-7.1-11.9
					c-2.4-1.4-6.4-2.3-8.2,0.3c-1.4,2.1-0.7,5.3-0.4,7.5c0.4,2.8,1.4,5.7,1.4,8.5c0,4.9-1.3,9.4-0.2,14.4
					c1.7,8.2,6.4,14.2,14.6,15.9c0.5,0.1,4.6,0.6,4.6,1.2c0-0.2-1.9,0.2-2.6,0.2c-3.7,0.1-7.4-1.3-11.1-2
					c-8.6-1.5-18.3,0.7-26.2,4.1c-3.4,1.5-22.5,10.6-13.5,15.8c2.8,1.6,7,0.6,10,0.2c5.1-0.6,10.2-1.2,15.4-1.9
					c5-0.6,9.9-1.2,14.9-1.6c2.3-0.2,4.7-0.1,6.9-0.4c-0.1,0,1.9,0,2,0c-0.5-3.2-1.3-4.1-2.1-2.6c-0.4,0.5-0.9,0.9-1.3,1.3
					c-8.5,7.9-22.1,8.7-32.8,12c-5.8,1.8-13.2,4.1-19,1.1c-4.6-2.3-6.5-7.5-11.9-8.4c-1.9-0.3-3.8,0.8-3.8,2.9
					c-0.4,20.4-0.7,40.8-1.1,61.2c-0.5,28.7-1,57.3-1.5,86c0,2.8-0.5,5.8-0.2,8.6c0.6,4.6,5.1,9.6,7.5,13.6c2,3.3,7.2,0.3,5.2-3
					c-1.4-2.4-2.9-4.8-4.3-7.2c-0.6-1-1.4-3.3-2.4-4c-1.2-0.8,0,0.9,0,0.7c0.1-2.3,0.1-4.5,0.1-6.8c0.2-11.7,0.4-23.3,0.6-35
					c0.5-30.6,1.1-61.2,1.6-91.7c0.1-7.5,0.3-14.9,0.4-22.4c-1.3,1-2.5,1.9-3.8,2.9c4.5,0.7,7.5,6.5,11.8,8.4
					c4.4,1.9,9.4,1.8,14.1,1c5.7-1,11.2-3.1,16.8-4.5c5.9-1.6,12.7-2.5,18.3-5c3.5-1.6,14.7-8.2,11.5-13.3c-1.5-2.4-5.3-1.7-7.7-1.6
					c-4.7,0.3-9.4,0.8-14.1,1.3c-5,0.6-10,1.2-15,1.8c-2,0.2-4,0.5-6,0.7c-1.4,0.1-4.4-0.1-5.7,0.5c-0.3,0-0.5,0-0.8,0
					c-0.6,2.7-0.2,3.1,1.3,1.4c1.1-0.5,2.3-1.7,3.3-2.3c2.6-1.7,5.3-3.1,8.1-4.3c6-2.5,12.5-3.9,19.1-3.9c6.4,0,13.7,4.2,20,1.7
					c6.1-2.5,4.6-9.8-1-11.7c-4.6-1.5-8.4-0.8-11.4-5.4c-3.4-5.2-3.7-11.2-2.9-17.2c0.4-3,0.2-5.3-0.4-8.3c-0.4-2-0.7-4.1-1-6.1
					c0-0.3-0.2-1.3,0-1.5c-0.5,1.5,0,2.6,1.5,3.1c0.9,1.2,1.5,2.5,1.8,3.9c2.4,6.3,4.6,12.5,7.2,18.6c2.1,5,4.2,12,11.6,10.2
					c9.2-2.2,4.8-19,3.7-25c-1-5.9-2.5-11.6-4.3-17.3c-2-6.1-4.3-13.4-7.8-18.8c-1.8-2.7-4.6-4.6-7.3-6.2c-2.5-1.5-6.4-4.7-9.4-5.2
					c-6.1-1.1-4.7,8.3-4.6,11.7c0.1,3.5,0.7,8.8-1.1,11.9c-3.6,6.2-9.3-4.5-11.4-7.3c-3.8-5,2.8-9.5,3.7-14.6
					c0.7-3.7-1.6-7.2-4.3-9.5c-4.7-4.1-13.9-5.7-17.4,0.8c-0.9,1.7-0.8,3.3-1,5.2c-0.4,3.4-2.7,6.5-4.4,9.4
					c-3.7,6.1-9.4,9.9-16.3,11.2c-1.4,0.3-2.1,1.6-2.2,2.9c-0.7,5.9,5,8.4,9.9,8.2c7.4-0.3,13.9,0.1,20.6,3.8
					c6.9,3.8,12.1,10,14.7,17.5c1.6,4.6,4.6,20.1-2.7,21.3c-4.9,0.8-9.5-3.9-14.8-2.9c-4.4,0.9-6.5,4.4-7.9,8.4
					c-0.5,1.5-1.2,6.3-3.2,6.4c-1.3,0.1-3.6-2.9-3.9-3.9c-0.2-1,0-2.1,0.2-3.1c0.5-2.2,1.6-4.3,2.8-6.1c2-3.1,4.7-5.5,7.8-7.5
					c2.3-1.5,4.7-2.6,6.3-4.9c3.9-5.4,13-13.1,4.2-18.5c-7.2-4.4-19.1-3-26.4,0.6c-11.1,5.5-11.6,19-11,29.7
					c0.2,2.9,0.9,6.7-0.8,9.2c-1.3,1.8-3.7,3.2-5.6,4.2c-1.5,0.8-3.7,2.3-5.5,2.3c-1.4,0-0.5,0.4-0.8-0.3c-0.4-0.8,0.1-2.5,0.3-3.4
					c1-5.1,7.4-19.2-1.2-21.5c-3.9-1-8.5,2.3-11.5,4.3c-3.2,2.1-6.6,4-9,7.1c-1.5,2-2.7,4.7-4.6,6.4c-2.5,2.2-3.7-1.4-5-3.6
					c-1.9-3.2-4.1-5.9-5.4-9.4c-1.5-4.4-2.7-8.8-4.1-13.2c-0.7-2.2-1.4-6.1-3.7-7.4c-7.2-4.1-7.8,13-8.9,16.1
					c-1.2,3.3-6.8,8.7-10.8,6.2c-5.1-3.1,0.4-11.6,2.3-14.9c5.4-9.4,9.6-18.3,13.1-28.6c1.8-5.4,3.5-9.7,8.7-12.8
					c6.3-3.7,13.9-4,21-5.2c3.9-0.6,7.7-1.6,11.4-3c1.9-0.7,3.6-1.4,5.6-1.8c1.6-0.3,1.1-0.6,2,1.4c0.6,1.2,1.8,4.3,1.1,5.6
					c-0.7,1.3-8.2,0.6-10.1,0.5c-4-0.1-8-0.2-12-0.2c-3.2-0.1-7-0.7-10.1,0.4c-5.4,1.9-5.3,8.1-5.5,12.9c-0.4,8.6-0.4,17.6,0.7,26.2
					c0.5,3.8,2.3,9,6.9,9.1c3.6,0.1,6.1-4.7,7.6-7.4c2.9-5.5,1.6-9.5,0.4-15.4c-0.3-1.5-1.1-3.7-0.2-4.9c0.6-0.9,2.3-1.5,3.2-1.9
					c1-0.4,2.1-0.8,3.1-1c2.1-0.4,2.2-0.4,3.1,1.5c3.3,6.6,2.5,14.9,5,21.8c1.7,4.5,6.2,6.2,10.2,3.2c4.9-3.7,6.4-11.4,7.7-17
					c1.8-7.8,3.1-15.8,8.6-22c3.7-4.1,9.4-6.2,11.9-11.3c3.9-8.3-3.3-16.3-11-18.5c-6.4-1.8-12.4,0.7-18.8,0.1
					c-6.6-0.6-13.2-2.6-19.7-0.1c-3.1,1.2-5.8,2.8-9.1,3.4c-2.1,0.4-4.3,0.3-6.4,0.9c-5.3,1.4-10.5,4.8-15.3,7.2
					c-5.6,2.7-9.1,6.8-13.1,11.5c-3.9,4.6-8.4,8.5-11.7,13.7c-3.7,5.7-6.3,12-8.9,18.3c-2.7,6.6-4.3,12.1-4,19.3
					c0.2,5.6,0.5,11.7,4,16.4c2.3,3,5.4,4.5,8.8,5.8c8.9,3.5,18.4,5.8,27.7,8.1c4.4,1.1,8.8,2.2,13.2,3.1c3.3,0.7,7.8,0.8,10.3,3.1
					c1.3,1.2,2,3,3.1,4.4c0.5,0.7,1.2,1.9,2,2.4c0.5,0.4,1.7,1.3,1.2,0c0.2,0.5,0,1.5,0,2.1c0,27.4,0,54.8,0,82.2
					c0,15.4,0,30.8,0,46.2c0,4.7,0,9.4,0,14c0,1.2,0.1,2.3,0,3.5c0,0.2,0,0.4,0,0.6c0.2-1.2-0.1-0.1-0.4,0.6
					c-2.7,5.6-4.4,11.8-6.6,17.6C781.7,681.4,787.5,682.9,788.8,679.3L788.8,679.3z"/>
			</g>
		</g>
	</g>
	<g>
		<path class="st0" d="M1361.1,980.4c16.9,0,33.1,5.1,47,14.6c13.9,9.6,24.4,23,30.3,38.7l133.7,352.7c5,13.1,6.6,26.7,4.7,40.3
			c-1.7,12.8-6.6,25.2-14,36c-7.4,10.7-17.3,19.7-28.7,25.8c-12.1,6.6-25.3,9.9-39.4,9.9H125.1c-27.1,0-51.6-12.6-67.3-34.7
			c-15.7-22-19.7-49.3-10.9-74.9l121.4-352.7c11.5-33.4,42.9-55.8,78.2-55.8H1361.1 M1361.1,971.4H246.5c-39.1,0-74,24.8-86.7,61.8
			L38.5,1386c-20.5,59.5,23.7,121.5,86.7,121.5h1369.7c64.1,0,108.5-64.2,85.7-124.2l-133.7-352.7
			C1433.4,994.9,1399.2,971.4,1361.1,971.4L1361.1,971.4z"/>
	</g>
	<g>
		<path class="st0" d="M939.9,1481H665.3c-12.6,0-21.5-12.4-17.4-24.4l24.3-70.7c2.6-7.4,9.5-12.4,17.4-12.4h223.5
			c7.6,0,14.5,4.7,17.2,11.9l26.8,70.7C961.6,1468.2,952.8,1481,939.9,1481z"/>
	</g>
	<g>
		<g>
			<path class="st0" d="M250.9,1066.1c-8.7,0-15.7-7.1-15.7-15.7V1011c0-8.7,7.1-15.7,15.7-15.7h60.8c8.7,0,15.7,7.1,15.7,15.7v39.4
				c0,8.7-7.1,15.7-15.7,15.7H250.9z"/>
			<path class="st3" d="M311.7,997.3c7.6,0,13.7,6.2,13.7,13.7v39.4c0,7.6-6.2,13.7-13.7,13.7h-60.8c-7.6,0-13.7-6.2-13.7-13.7V1011
				c0-7.6,6.2-13.7,13.7-13.7H311.7 M311.7,993.3h-60.8c-9.8,0-17.7,7.9-17.7,17.7v39.4c0,9.8,7.9,17.7,17.7,17.7h60.8
				c9.8,0,17.7-7.9,17.7-17.7V1011C329.4,1001.2,321.4,993.3,311.7,993.3L311.7,993.3z"/>
		</g>
		<g>
			<path class="st0" d="M347.1,1066.1c-8.7,0-15.7-7.1-15.7-15.7V1011c0-8.7,7.1-15.7,15.7-15.7h60.8c8.7,0,15.7,7.1,15.7,15.7v39.4
				c0,8.7-7.1,15.7-15.7,15.7H347.1z"/>
			<path class="st3" d="M407.9,997.3c7.6,0,13.7,6.2,13.7,13.7v39.4c0,7.6-6.2,13.7-13.7,13.7h-60.8c-7.6,0-13.7-6.2-13.7-13.7V1011
				c0-7.6,6.2-13.7,13.7-13.7H407.9 M407.9,993.3h-60.8c-9.8,0-17.7,7.9-17.7,17.7v39.4c0,9.8,7.9,17.7,17.7,17.7h60.8
				c9.8,0,17.7-7.9,17.7-17.7V1011C425.6,1001.2,417.7,993.3,407.9,993.3L407.9,993.3z"/>
		</g>
		<g>
			<path class="st0" d="M443.4,1066.1c-8.7,0-15.7-7.1-15.7-15.7V1011c0-8.7,7.1-15.7,15.7-15.7h60.8c8.7,0,15.7,7.1,15.7,15.7v39.4
				c0,8.7-7.1,15.7-15.7,15.7H443.4z"/>
			<path class="st3" d="M504.2,997.3c7.6,0,13.7,6.2,13.7,13.7v39.4c0,7.6-6.2,13.7-13.7,13.7h-60.8c-7.6,0-13.7-6.2-13.7-13.7V1011
				c0-7.6,6.2-13.7,13.7-13.7H504.2 M504.2,993.3h-60.8c-9.8,0-17.7,7.9-17.7,17.7v39.4c0,9.8,7.9,17.7,17.7,17.7h60.8
				c9.8,0,17.7-7.9,17.7-17.7V1011C521.9,1001.2,514,993.3,504.2,993.3L504.2,993.3z"/>
		</g>
		<g>
			<path class="st0" d="M539.6,1066.1c-8.7,0-15.7-7.1-15.7-15.7V1011c0-8.7,7.1-15.7,15.7-15.7h60.8c8.7,0,15.7,7.1,15.7,15.7v39.4
				c0,8.7-7.1,15.7-15.7,15.7H539.6z"/>
			<path class="st3" d="M600.4,997.3c7.6,0,13.7,6.2,13.7,13.7v39.4c0,7.6-6.2,13.7-13.7,13.7h-60.8c-7.6,0-13.7-6.2-13.7-13.7V1011
				c0-7.6,6.2-13.7,13.7-13.7H600.4 M600.4,993.3h-60.8c-9.8,0-17.7,7.9-17.7,17.7v39.4c0,9.8,7.9,17.7,17.7,17.7h60.8
				c9.8,0,17.7-7.9,17.7-17.7V1011C618.2,1001.2,610.2,993.3,600.4,993.3L600.4,993.3z"/>
		</g>
		<g>
			<path class="st0" d="M635.9,1066.1c-8.7,0-15.7-7.1-15.7-15.7V1011c0-8.7,7.1-15.7,15.7-15.7h60.8c8.7,0,15.7,7.1,15.7,15.7v39.4
				c0,8.7-7.1,15.7-15.7,15.7H635.9z"/>
			<path class="st3" d="M696.7,997.3c7.6,0,13.7,6.2,13.7,13.7v39.4c0,7.6-6.2,13.7-13.7,13.7h-60.8c-7.6,0-13.7-6.2-13.7-13.7V1011
				c0-7.6,6.2-13.7,13.7-13.7H696.7 M696.7,993.3h-60.8c-9.8,0-17.7,7.9-17.7,17.7v39.4c0,9.8,7.9,17.7,17.7,17.7h60.8
				c9.8,0,17.7-7.9,17.7-17.7V1011C714.4,1001.2,706.5,993.3,696.7,993.3L696.7,993.3z"/>
		</g>
		<g>
			<path class="st0" d="M732.1,1066.1c-8.7,0-15.7-7.1-15.7-15.7V1011c0-8.7,7.1-15.7,15.7-15.7h60.8c8.7,0,15.7,7.1,15.7,15.7v39.4
				c0,8.7-7.1,15.7-15.7,15.7H732.1z"/>
			<path class="st3" d="M792.9,997.3c7.6,0,13.7,6.2,13.7,13.7v39.4c0,7.6-6.2,13.7-13.7,13.7h-60.8c-7.6,0-13.7-6.2-13.7-13.7V1011
				c0-7.6,6.2-13.7,13.7-13.7H792.9 M792.9,993.3h-60.8c-9.8,0-17.7,7.9-17.7,17.7v39.4c0,9.8,7.9,17.7,17.7,17.7h60.8
				c9.8,0,17.7-7.9,17.7-17.7V1011C810.7,1001.2,802.7,993.3,792.9,993.3L792.9,993.3z"/>
		</g>
		<g>
			<path class="st0" d="M827.1,1066.1c-8.7,0-15.7-7.1-15.7-15.7V1011c0-8.7,7.1-15.7,15.7-15.7h60.8c8.7,0,15.7,7.1,15.7,15.7v39.4
				c0,8.7-7.1,15.7-15.7,15.7H827.1z"/>
			<path class="st3" d="M887.9,997.3c7.6,0,13.7,6.2,13.7,13.7v39.4c0,7.6-6.2,13.7-13.7,13.7h-60.8c-7.6,0-13.7-6.2-13.7-13.7V1011
				c0-7.6,6.2-13.7,13.7-13.7H887.9 M887.9,993.3h-60.8c-9.8,0-17.7,7.9-17.7,17.7v39.4c0,9.8,7.9,17.7,17.7,17.7h60.8
				c9.8,0,17.7-7.9,17.7-17.7V1011C905.6,1001.2,897.6,993.3,887.9,993.3L887.9,993.3z"/>
		</g>
		<g>
			<path class="st0" d="M923.3,1066.1c-8.7,0-15.7-7.1-15.7-15.7V1011c0-8.7,7.1-15.7,15.7-15.7h60.8c8.7,0,15.7,7.1,15.7,15.7v39.4
				c0,8.7-7.1,15.7-15.7,15.7H923.3z"/>
			<path class="st3" d="M984.1,997.3c7.6,0,13.7,6.2,13.7,13.7v39.4c0,7.6-6.2,13.7-13.7,13.7h-60.8c-7.6,0-13.7-6.2-13.7-13.7V1011
				c0-7.6,6.2-13.7,13.7-13.7H984.1 M984.1,993.3h-60.8c-9.8,0-17.7,7.9-17.7,17.7v39.4c0,9.8,7.9,17.7,17.7,17.7h60.8
				c9.8,0,17.7-7.9,17.7-17.7V1011C1001.8,1001.2,993.9,993.3,984.1,993.3L984.1,993.3z"/>
		</g>
		<g>
			<path class="st0" d="M1019.6,1066.1c-8.7,0-15.7-7.1-15.7-15.7V1011c0-8.7,7.1-15.7,15.7-15.7h60.8c8.7,0,15.7,7.1,15.7,15.7
				v39.4c0,8.7-7.1,15.7-15.7,15.7H1019.6z"/>
			<path class="st3" d="M1080.4,997.3c7.6,0,13.7,6.2,13.7,13.7v39.4c0,7.6-6.2,13.7-13.7,13.7h-60.8c-7.6,0-13.7-6.2-13.7-13.7
				V1011c0-7.6,6.2-13.7,13.7-13.7H1080.4 M1080.4,993.3h-60.8c-9.8,0-17.7,7.9-17.7,17.7v39.4c0,9.8,7.9,17.7,17.7,17.7h60.8
				c9.8,0,17.7-7.9,17.7-17.7V1011C1098.1,1001.2,1090.2,993.3,1080.4,993.3L1080.4,993.3z"/>
		</g>
		<g>
			<path class="st0" d="M1115.8,1066.1c-8.7,0-15.7-7.1-15.7-15.7V1011c0-8.7,7.1-15.7,15.7-15.7h60.8c8.7,0,15.7,7.1,15.7,15.7
				v39.4c0,8.7-7.1,15.7-15.7,15.7H1115.8z"/>
			<path class="st3" d="M1176.6,997.3c7.6,0,13.7,6.2,13.7,13.7v39.4c0,7.6-6.2,13.7-13.7,13.7h-60.8c-7.6,0-13.7-6.2-13.7-13.7
				V1011c0-7.6,6.2-13.7,13.7-13.7H1176.6 M1176.6,993.3h-60.8c-9.8,0-17.7,7.9-17.7,17.7v39.4c0,9.8,7.9,17.7,17.7,17.7h60.8
				c9.8,0,17.7-7.9,17.7-17.7V1011C1194.4,1001.2,1186.4,993.3,1176.6,993.3L1176.6,993.3z"/>
		</g>
		<g>
			<path class="st0" d="M1212.1,1066.1c-8.7,0-15.7-7.1-15.7-15.7V1011c0-8.7,7.1-15.7,15.7-15.7h60.8c8.7,0,15.7,7.1,15.7,15.7
				v39.4c0,8.7-7.1,15.7-15.7,15.7H1212.1z"/>
			<path class="st3" d="M1272.9,997.3c7.6,0,13.7,6.2,13.7,13.7v39.4c0,7.6-6.2,13.7-13.7,13.7h-60.8c-7.6,0-13.7-6.2-13.7-13.7
				V1011c0-7.6,6.2-13.7,13.7-13.7H1272.9 M1272.9,993.3h-60.8c-9.8,0-17.7,7.9-17.7,17.7v39.4c0,9.8,7.9,17.7,17.7,17.7h60.8
				c9.8,0,17.7-7.9,17.7-17.7V1011C1290.6,1001.2,1282.7,993.3,1272.9,993.3L1272.9,993.3z"/>
		</g>
		<g>
			<path class="st0" d="M1308.3,1066.1c-8.7,0-15.7-7.1-15.7-15.7V1011c0-8.7,7.1-15.7,15.7-15.7h60.8c8.7,0,15.7,7.1,15.7,15.7
				v39.4c0,8.7-7.1,15.7-15.7,15.7H1308.3z"/>
			<path class="st3" d="M1369.1,997.3c7.6,0,13.7,6.2,13.7,13.7v39.4c0,7.6-6.2,13.7-13.7,13.7h-60.8c-7.6,0-13.7-6.2-13.7-13.7
				V1011c0-7.6,6.2-13.7,13.7-13.7H1369.1 M1369.1,993.3h-60.8c-9.8,0-17.7,7.9-17.7,17.7v39.4c0,9.8,7.9,17.7,17.7,17.7h60.8
				c9.8,0,17.7-7.9,17.7-17.7V1011C1386.9,1001.2,1378.9,993.3,1369.1,993.3L1369.1,993.3z"/>
		</g>
		<g>
			<path class="st0" d="M1356.8,1167.6c-8.7,0-15.7-7.1-15.7-15.7v-39.4c0-8.7,7.1-15.7,15.7-15.7h60.8c8.7,0,15.7,7.1,15.7,15.7
				v39.4c0,8.7-7.1,15.7-15.7,15.7H1356.8z"/>
			<path class="st3" d="M1417.5,1098.7c7.6,0,13.7,6.2,13.7,13.7v39.4c0,7.6-6.2,13.7-13.7,13.7h-60.8c-7.6,0-13.7-6.2-13.7-13.7
				v-39.4c0-7.6,6.2-13.7,13.7-13.7H1417.5 M1417.5,1094.7h-60.8c-9.8,0-17.7,7.9-17.7,17.7v39.4c0,9.8,7.9,17.7,17.7,17.7h60.8
				c9.8,0,17.7-7.9,17.7-17.7v-39.4C1435.3,1102.7,1427.3,1094.7,1417.5,1094.7L1417.5,1094.7z"/>
		</g>
	</g>
	<g>
		<g>
			<path class="st0" d="M205,1167.7c-8.7,0-15.7-7.1-15.7-15.7v-39.4c0-8.7,7.1-15.7,15.7-15.7h60.8c8.7,0,15.7,7.1,15.7,15.7v39.4
				c0,8.7-7.1,15.7-15.7,15.7H205z"/>
			<path class="st3" d="M265.8,1098.9c7.6,0,13.7,6.2,13.7,13.7v39.4c0,7.6-6.2,13.7-13.7,13.7H205c-7.6,0-13.7-6.2-13.7-13.7v-39.4
				c0-7.6,6.2-13.7,13.7-13.7H265.8 M265.8,1094.9H205c-9.8,0-17.7,7.9-17.7,17.7v39.4c0,9.8,7.9,17.7,17.7,17.7h60.8
				c9.8,0,17.7-7.9,17.7-17.7v-39.4C283.5,1102.8,275.6,1094.9,265.8,1094.9L265.8,1094.9z"/>
		</g>
		<g>
			<path class="st0" d="M301.2,1167.7c-8.7,0-15.7-7.1-15.7-15.7v-39.4c0-8.7,7.1-15.7,15.7-15.7H362c8.7,0,15.7,7.1,15.7,15.7v39.4
				c0,8.7-7.1,15.7-15.7,15.7H301.2z"/>
			<path class="st3" d="M362,1098.9c7.6,0,13.7,6.2,13.7,13.7v39.4c0,7.6-6.2,13.7-13.7,13.7h-60.8c-7.6,0-13.7-6.2-13.7-13.7v-39.4
				c0-7.6,6.2-13.7,13.7-13.7H362 M362,1094.9h-60.8c-9.8,0-17.7,7.9-17.7,17.7v39.4c0,9.8,7.9,17.7,17.7,17.7H362
				c9.8,0,17.7-7.9,17.7-17.7v-39.4C379.8,1102.8,371.8,1094.9,362,1094.9L362,1094.9z"/>
		</g>
		<g>
			<path class="st0" d="M397.5,1167.7c-8.7,0-15.7-7.1-15.7-15.7v-39.4c0-8.7,7.1-15.7,15.7-15.7h60.8c8.7,0,15.7,7.1,15.7,15.7
				v39.4c0,8.7-7.1,15.7-15.7,15.7H397.5z"/>
			<path class="st3" d="M458.3,1098.9c7.6,0,13.7,6.2,13.7,13.7v39.4c0,7.6-6.2,13.7-13.7,13.7h-60.8c-7.6,0-13.7-6.2-13.7-13.7
				v-39.4c0-7.6,6.2-13.7,13.7-13.7H458.3 M458.3,1094.9h-60.8c-9.8,0-17.7,7.9-17.7,17.7v39.4c0,9.8,7.9,17.7,17.7,17.7h60.8
				c9.8,0,17.7-7.9,17.7-17.7v-39.4C476,1102.8,468.1,1094.9,458.3,1094.9L458.3,1094.9z"/>
		</g>
		<g>
			<path class="st0" d="M493.7,1167.7c-8.7,0-15.7-7.1-15.7-15.7v-39.4c0-8.7,7.1-15.7,15.7-15.7h60.8c8.7,0,15.7,7.1,15.7,15.7
				v39.4c0,8.7-7.1,15.7-15.7,15.7H493.7z"/>
			<path class="st3" d="M554.5,1098.9c7.6,0,13.7,6.2,13.7,13.7v39.4c0,7.6-6.2,13.7-13.7,13.7h-60.8c-7.6,0-13.7-6.2-13.7-13.7
				v-39.4c0-7.6,6.2-13.7,13.7-13.7H554.5 M554.5,1094.9h-60.8c-9.8,0-17.7,7.9-17.7,17.7v39.4c0,9.8,7.9,17.7,17.7,17.7h60.8
				c9.8,0,17.7-7.9,17.7-17.7v-39.4C572.3,1102.8,564.3,1094.9,554.5,1094.9L554.5,1094.9z"/>
		</g>
		<g>
			<path class="st0" d="M590,1167.7c-8.7,0-15.7-7.1-15.7-15.7v-39.4c0-8.7,7.1-15.7,15.7-15.7h60.8c8.7,0,15.7,7.1,15.7,15.7v39.4
				c0,8.7-7.1,15.7-15.7,15.7H590z"/>
			<path class="st3" d="M650.8,1098.9c7.6,0,13.7,6.2,13.7,13.7v39.4c0,7.6-6.2,13.7-13.7,13.7H590c-7.6,0-13.7-6.2-13.7-13.7v-39.4
				c0-7.6,6.2-13.7,13.7-13.7H650.8 M650.8,1094.9H590c-9.8,0-17.7,7.9-17.7,17.7v39.4c0,9.8,7.9,17.7,17.7,17.7h60.8
				c9.8,0,17.7-7.9,17.7-17.7v-39.4C668.5,1102.8,660.6,1094.9,650.8,1094.9L650.8,1094.9z"/>
		</g>
		<g>
			<path class="st0" d="M686.3,1167.7c-8.7,0-15.7-7.1-15.7-15.7v-39.4c0-8.7,7.1-15.7,15.7-15.7H747c8.7,0,15.7,7.1,15.7,15.7v39.4
				c0,8.7-7.1,15.7-15.7,15.7H686.3z"/>
			<path class="st3" d="M747,1098.9c7.6,0,13.7,6.2,13.7,13.7v39.4c0,7.6-6.2,13.7-13.7,13.7h-60.8c-7.6,0-13.7-6.2-13.7-13.7v-39.4
				c0-7.6,6.2-13.7,13.7-13.7H747 M747,1094.9h-60.8c-9.8,0-17.7,7.9-17.7,17.7v39.4c0,9.8,7.9,17.7,17.7,17.7H747
				c9.8,0,17.7-7.9,17.7-17.7v-39.4C764.8,1102.8,756.8,1094.9,747,1094.9L747,1094.9z"/>
		</g>
		<g>
			<path class="st0" d="M781.2,1167.7c-8.7,0-15.7-7.1-15.7-15.7v-39.4c0-8.7,7.1-15.7,15.7-15.7H842c8.7,0,15.7,7.1,15.7,15.7v39.4
				c0,8.7-7.1,15.7-15.7,15.7H781.2z"/>
			<path class="st3" d="M842,1098.9c7.6,0,13.7,6.2,13.7,13.7v39.4c0,7.6-6.2,13.7-13.7,13.7h-60.8c-7.6,0-13.7-6.2-13.7-13.7v-39.4
				c0-7.6,6.2-13.7,13.7-13.7H842 M842,1094.9h-60.8c-9.8,0-17.7,7.9-17.7,17.7v39.4c0,9.8,7.9,17.7,17.7,17.7H842
				c9.8,0,17.7-7.9,17.7-17.7v-39.4C859.7,1102.8,851.8,1094.9,842,1094.9L842,1094.9z"/>
		</g>
		<g>
			<path class="st0" d="M877.4,1167.7c-8.7,0-15.7-7.1-15.7-15.7v-39.4c0-8.7,7.1-15.7,15.7-15.7h60.8c8.7,0,15.7,7.1,15.7,15.7
				v39.4c0,8.7-7.1,15.7-15.7,15.7H877.4z"/>
			<path class="st3" d="M938.2,1098.9c7.6,0,13.7,6.2,13.7,13.7v39.4c0,7.6-6.2,13.7-13.7,13.7h-60.8c-7.6,0-13.7-6.2-13.7-13.7
				v-39.4c0-7.6,6.2-13.7,13.7-13.7H938.2 M938.2,1094.9h-60.8c-9.8,0-17.7,7.9-17.7,17.7v39.4c0,9.8,7.9,17.7,17.7,17.7h60.8
				c9.8,0,17.7-7.9,17.7-17.7v-39.4C956,1102.8,948,1094.9,938.2,1094.9L938.2,1094.9z"/>
		</g>
		<g>
			<path class="st0" d="M973.7,1167.7c-8.7,0-15.7-7.1-15.7-15.7v-39.4c0-8.7,7.1-15.7,15.7-15.7h60.8c8.7,0,15.7,7.1,15.7,15.7
				v39.4c0,8.7-7.1,15.7-15.7,15.7H973.7z"/>
			<path class="st3" d="M1034.5,1098.9c7.6,0,13.7,6.2,13.7,13.7v39.4c0,7.6-6.2,13.7-13.7,13.7h-60.8c-7.6,0-13.7-6.2-13.7-13.7
				v-39.4c0-7.6,6.2-13.7,13.7-13.7H1034.5 M1034.5,1094.9h-60.8c-9.8,0-17.7,7.9-17.7,17.7v39.4c0,9.8,7.9,17.7,17.7,17.7h60.8
				c9.8,0,17.7-7.9,17.7-17.7v-39.4C1052.2,1102.8,1044.3,1094.9,1034.5,1094.9L1034.5,1094.9z"/>
		</g>
		<g>
			<path class="st0" d="M1069.9,1167.7c-8.7,0-15.7-7.1-15.7-15.7v-39.4c0-8.7,7.1-15.7,15.7-15.7h60.8c8.7,0,15.7,7.1,15.7,15.7
				v39.4c0,8.7-7.1,15.7-15.7,15.7H1069.9z"/>
			<path class="st3" d="M1130.7,1098.9c7.6,0,13.7,6.2,13.7,13.7v39.4c0,7.6-6.2,13.7-13.7,13.7h-60.8c-7.6,0-13.7-6.2-13.7-13.7
				v-39.4c0-7.6,6.2-13.7,13.7-13.7H1130.7 M1130.7,1094.9h-60.8c-9.8,0-17.7,7.9-17.7,17.7v39.4c0,9.8,7.9,17.7,17.7,17.7h60.8
				c9.8,0,17.7-7.9,17.7-17.7v-39.4C1148.5,1102.8,1140.5,1094.9,1130.7,1094.9L1130.7,1094.9z"/>
		</g>
		<g>
			<path class="st0" d="M1166.2,1167.7c-8.7,0-15.7-7.1-15.7-15.7v-39.4c0-8.7,7.1-15.7,15.7-15.7h60.8c8.7,0,15.7,7.1,15.7,15.7
				v39.4c0,8.7-7.1,15.7-15.7,15.7H1166.2z"/>
			<path class="st3" d="M1227,1098.9c7.6,0,13.7,6.2,13.7,13.7v39.4c0,7.6-6.2,13.7-13.7,13.7h-60.8c-7.6,0-13.7-6.2-13.7-13.7
				v-39.4c0-7.6,6.2-13.7,13.7-13.7H1227 M1227,1094.9h-60.8c-9.8,0-17.7,7.9-17.7,17.7v39.4c0,9.8,7.9,17.7,17.7,17.7h60.8
				c9.8,0,17.7-7.9,17.7-17.7v-39.4C1244.7,1102.8,1236.8,1094.9,1227,1094.9L1227,1094.9z"/>
		</g>
		<g>
			<path class="st0" d="M1262.5,1167.7c-8.7,0-15.7-7.1-15.7-15.7v-39.4c0-8.7,7.1-15.7,15.7-15.7h60.8c8.7,0,15.7,7.1,15.7,15.7
				v39.4c0,8.7-7.1,15.7-15.7,15.7H1262.5z"/>
			<path class="st3" d="M1323.2,1098.9c7.6,0,13.7,6.2,13.7,13.7v39.4c0,7.6-6.2,13.7-13.7,13.7h-60.8c-7.6,0-13.7-6.2-13.7-13.7
				v-39.4c0-7.6,6.2-13.7,13.7-13.7H1323.2 M1323.2,1094.9h-60.8c-9.8,0-17.7,7.9-17.7,17.7v39.4c0,9.8,7.9,17.7,17.7,17.7h60.8
				c9.8,0,17.7-7.9,17.7-17.7v-39.4C1341,1102.8,1333,1094.9,1323.2,1094.9L1323.2,1094.9z"/>
		</g>
	</g>
	<g>
		<g>
			<path class="st0" d="M249.7,1263.8c-8.7,0-15.7-7.1-15.7-15.7v-39.4c0-8.7,7.1-15.7,15.7-15.7h60.8c8.7,0,15.7,7.1,15.7,15.7
				v39.4c0,8.7-7.1,15.7-15.7,15.7H249.7z"/>
			<path class="st3" d="M310.5,1194.9c7.6,0,13.7,6.2,13.7,13.7v39.4c0,7.6-6.2,13.7-13.7,13.7h-60.8c-7.6,0-13.7-6.2-13.7-13.7
				v-39.4c0-7.6,6.2-13.7,13.7-13.7H310.5 M310.5,1190.9h-60.8c-9.8,0-17.7,7.9-17.7,17.7v39.4c0,9.8,7.9,17.7,17.7,17.7h60.8
				c9.8,0,17.7-7.9,17.7-17.7v-39.4C328.2,1198.8,320.2,1190.9,310.5,1190.9L310.5,1190.9z"/>
		</g>
		<g>
			<path class="st0" d="M345.9,1263.8c-8.7,0-15.7-7.1-15.7-15.7v-39.4c0-8.7,7.1-15.7,15.7-15.7h60.8c8.7,0,15.7,7.1,15.7,15.7
				v39.4c0,8.7-7.1,15.7-15.7,15.7H345.9z"/>
			<path class="st3" d="M406.7,1194.9c7.6,0,13.7,6.2,13.7,13.7v39.4c0,7.6-6.2,13.7-13.7,13.7h-60.8c-7.6,0-13.7-6.2-13.7-13.7
				v-39.4c0-7.6,6.2-13.7,13.7-13.7H406.7 M406.7,1190.9h-60.8c-9.8,0-17.7,7.9-17.7,17.7v39.4c0,9.8,7.9,17.7,17.7,17.7h60.8
				c9.8,0,17.7-7.9,17.7-17.7v-39.4C424.4,1198.8,416.5,1190.9,406.7,1190.9L406.7,1190.9z"/>
		</g>
		<g>
			<path class="st0" d="M442.2,1263.8c-8.7,0-15.7-7.1-15.7-15.7v-39.4c0-8.7,7.1-15.7,15.7-15.7H503c8.7,0,15.7,7.1,15.7,15.7v39.4
				c0,8.7-7.1,15.7-15.7,15.7H442.2z"/>
			<path class="st3" d="M503,1194.9c7.6,0,13.7,6.2,13.7,13.7v39.4c0,7.6-6.2,13.7-13.7,13.7h-60.8c-7.6,0-13.7-6.2-13.7-13.7v-39.4
				c0-7.6,6.2-13.7,13.7-13.7H503 M503,1190.9h-60.8c-9.8,0-17.7,7.9-17.7,17.7v39.4c0,9.8,7.9,17.7,17.7,17.7H503
				c9.8,0,17.7-7.9,17.7-17.7v-39.4C520.7,1198.8,512.8,1190.9,503,1190.9L503,1190.9z"/>
		</g>
		<g>
			<path class="st0" d="M538.4,1263.8c-8.7,0-15.7-7.1-15.7-15.7v-39.4c0-8.7,7.1-15.7,15.7-15.7h60.8c8.7,0,15.7,7.1,15.7,15.7
				v39.4c0,8.7-7.1,15.7-15.7,15.7H538.4z"/>
			<path class="st3" d="M599.2,1194.9c7.6,0,13.7,6.2,13.7,13.7v39.4c0,7.6-6.2,13.7-13.7,13.7h-60.8c-7.6,0-13.7-6.2-13.7-13.7
				v-39.4c0-7.6,6.2-13.7,13.7-13.7H599.2 M599.2,1190.9h-60.8c-9.8,0-17.7,7.9-17.7,17.7v39.4c0,9.8,7.9,17.7,17.7,17.7h60.8
				c9.8,0,17.7-7.9,17.7-17.7v-39.4C617,1198.8,609,1190.9,599.2,1190.9L599.2,1190.9z"/>
		</g>
		<g>
			<path class="st0" d="M634.7,1263.8c-8.7,0-15.7-7.1-15.7-15.7v-39.4c0-8.7,7.1-15.7,15.7-15.7h60.8c8.7,0,15.7,7.1,15.7,15.7
				v39.4c0,8.7-7.1,15.7-15.7,15.7H634.7z"/>
			<path class="st3" d="M695.5,1194.9c7.6,0,13.7,6.2,13.7,13.7v39.4c0,7.6-6.2,13.7-13.7,13.7h-60.8c-7.6,0-13.7-6.2-13.7-13.7
				v-39.4c0-7.6,6.2-13.7,13.7-13.7H695.5 M695.5,1190.9h-60.8c-9.8,0-17.7,7.9-17.7,17.7v39.4c0,9.8,7.9,17.7,17.7,17.7h60.8
				c9.8,0,17.7-7.9,17.7-17.7v-39.4C713.2,1198.8,705.3,1190.9,695.5,1190.9L695.5,1190.9z"/>
		</g>
		<g>
			<path class="st0" d="M730.9,1263.8c-8.7,0-15.7-7.1-15.7-15.7v-39.4c0-8.7,7.1-15.7,15.7-15.7h60.8c8.7,0,15.7,7.1,15.7,15.7
				v39.4c0,8.7-7.1,15.7-15.7,15.7H730.9z"/>
			<path class="st3" d="M791.7,1194.9c7.6,0,13.7,6.2,13.7,13.7v39.4c0,7.6-6.2,13.7-13.7,13.7h-60.8c-7.6,0-13.7-6.2-13.7-13.7
				v-39.4c0-7.6,6.2-13.7,13.7-13.7H791.7 M791.7,1190.9h-60.8c-9.8,0-17.7,7.9-17.7,17.7v39.4c0,9.8,7.9,17.7,17.7,17.7h60.8
				c9.8,0,17.7-7.9,17.7-17.7v-39.4C809.5,1198.8,801.5,1190.9,791.7,1190.9L791.7,1190.9z"/>
		</g>
		<g>
			<path class="st0" d="M825.9,1263.8c-8.7,0-15.7-7.1-15.7-15.7v-39.4c0-8.7,7.1-15.7,15.7-15.7h60.8c8.7,0,15.7,7.1,15.7,15.7
				v39.4c0,8.7-7.1,15.7-15.7,15.7H825.9z"/>
			<path class="st3" d="M886.6,1194.9c7.6,0,13.7,6.2,13.7,13.7v39.4c0,7.6-6.2,13.7-13.7,13.7h-60.8c-7.6,0-13.7-6.2-13.7-13.7
				v-39.4c0-7.6,6.2-13.7,13.7-13.7H886.6 M886.6,1190.9h-60.8c-9.8,0-17.7,7.9-17.7,17.7v39.4c0,9.8,7.9,17.7,17.7,17.7h60.8
				c9.8,0,17.7-7.9,17.7-17.7v-39.4C904.4,1198.8,896.4,1190.9,886.6,1190.9L886.6,1190.9z"/>
		</g>
		<g>
			<path class="st0" d="M922.1,1263.8c-8.7,0-15.7-7.1-15.7-15.7v-39.4c0-8.7,7.1-15.7,15.7-15.7h60.8c8.7,0,15.7,7.1,15.7,15.7
				v39.4c0,8.7-7.1,15.7-15.7,15.7H922.1z"/>
			<path class="st3" d="M982.9,1194.9c7.6,0,13.7,6.2,13.7,13.7v39.4c0,7.6-6.2,13.7-13.7,13.7h-60.8c-7.6,0-13.7-6.2-13.7-13.7
				v-39.4c0-7.6,6.2-13.7,13.7-13.7H982.9 M982.9,1190.9h-60.8c-9.8,0-17.7,7.9-17.7,17.7v39.4c0,9.8,7.9,17.7,17.7,17.7h60.8
				c9.8,0,17.7-7.9,17.7-17.7v-39.4C1000.6,1198.8,992.7,1190.9,982.9,1190.9L982.9,1190.9z"/>
		</g>
		<g>
			<path class="st0" d="M1018.4,1263.8c-8.7,0-15.7-7.1-15.7-15.7v-39.4c0-8.7,7.1-15.7,15.7-15.7h60.8c8.7,0,15.7,7.1,15.7,15.7
				v39.4c0,8.7-7.1,15.7-15.7,15.7H1018.4z"/>
			<path class="st3" d="M1079.2,1194.9c7.6,0,13.7,6.2,13.7,13.7v39.4c0,7.6-6.2,13.7-13.7,13.7h-60.8c-7.6,0-13.7-6.2-13.7-13.7
				v-39.4c0-7.6,6.2-13.7,13.7-13.7H1079.2 M1079.2,1190.9h-60.8c-9.8,0-17.7,7.9-17.7,17.7v39.4c0,9.8,7.9,17.7,17.7,17.7h60.8
				c9.8,0,17.7-7.9,17.7-17.7v-39.4C1096.9,1198.8,1089,1190.9,1079.2,1190.9L1079.2,1190.9z"/>
		</g>
		<g>
			<path class="st0" d="M1114.6,1263.8c-8.7,0-15.7-7.1-15.7-15.7v-39.4c0-8.7,7.1-15.7,15.7-15.7h60.8c8.7,0,15.7,7.1,15.7,15.7
				v39.4c0,8.7-7.1,15.7-15.7,15.7H1114.6z"/>
			<path class="st3" d="M1175.4,1194.9c7.6,0,13.7,6.2,13.7,13.7v39.4c0,7.6-6.2,13.7-13.7,13.7h-60.8c-7.6,0-13.7-6.2-13.7-13.7
				v-39.4c0-7.6,6.2-13.7,13.7-13.7H1175.4 M1175.4,1190.9h-60.8c-9.8,0-17.7,7.9-17.7,17.7v39.4c0,9.8,7.9,17.7,17.7,17.7h60.8
				c9.8,0,17.7-7.9,17.7-17.7v-39.4C1193.2,1198.8,1185.2,1190.9,1175.4,1190.9L1175.4,1190.9z"/>
		</g>
		<g>
			<path class="st0" d="M1210.9,1263.8c-8.7,0-15.7-7.1-15.7-15.7v-39.4c0-8.7,7.1-15.7,15.7-15.7h60.8c8.7,0,15.7,7.1,15.7,15.7
				v39.4c0,8.7-7.1,15.7-15.7,15.7H1210.9z"/>
			<path class="st3" d="M1271.7,1194.9c7.6,0,13.7,6.2,13.7,13.7v39.4c0,7.6-6.2,13.7-13.7,13.7h-60.8c-7.6,0-13.7-6.2-13.7-13.7
				v-39.4c0-7.6,6.2-13.7,13.7-13.7H1271.7 M1271.7,1190.9h-60.8c-9.8,0-17.7,7.9-17.7,17.7v39.4c0,9.8,7.9,17.7,17.7,17.7h60.8
				c9.8,0,17.7-7.9,17.7-17.7v-39.4C1289.4,1198.8,1281.5,1190.9,1271.7,1190.9L1271.7,1190.9z"/>
		</g>
		<g>
			<path class="st0" d="M1307.1,1263.8c-8.7,0-15.7-7.1-15.7-15.7v-39.4c0-8.7,7.1-15.7,15.7-15.7h60.8c8.7,0,15.7,7.1,15.7,15.7
				v39.4c0,8.7-7.1,15.7-15.7,15.7H1307.1z"/>
			<path class="st3" d="M1367.9,1194.9c7.6,0,13.7,6.2,13.7,13.7v39.4c0,7.6-6.2,13.7-13.7,13.7h-60.8c-7.6,0-13.7-6.2-13.7-13.7
				v-39.4c0-7.6,6.2-13.7,13.7-13.7H1367.9 M1367.9,1190.9h-60.8c-9.8,0-17.7,7.9-17.7,17.7v39.4c0,9.8,7.9,17.7,17.7,17.7h60.8
				c9.8,0,17.7-7.9,17.7-17.7v-39.4C1385.7,1198.8,1377.7,1190.9,1367.9,1190.9L1367.9,1190.9z"/>
		</g>
		<g>
			<path class="st0" d="M1403,1263.8c-8.7,0-15.7-7.1-15.7-15.7v-39.4c0-8.7,7.1-15.7,15.7-15.7h60.8c8.7,0,15.7,7.1,15.7,15.7v39.4
				c0,8.7-7.1,15.7-15.7,15.7H1403z"/>
			<path class="st3" d="M1463.8,1194.9c7.6,0,13.7,6.2,13.7,13.7v39.4c0,7.6-6.2,13.7-13.7,13.7H1403c-7.6,0-13.7-6.2-13.7-13.7
				v-39.4c0-7.6,6.2-13.7,13.7-13.7H1463.8 M1463.8,1190.9H1403c-9.8,0-17.7,7.9-17.7,17.7v39.4c0,9.8,7.9,17.7,17.7,17.7h60.8
				c9.8,0,17.7-7.9,17.7-17.7v-39.4C1481.6,1198.8,1473.6,1190.9,1463.8,1190.9L1463.8,1190.9z"/>
		</g>
		<g>
			<path class="st0" d="M153.8,1263.8c-8.7,0-15.7-7.1-15.7-15.7v-39.4c0-8.7,7.1-15.7,15.7-15.7h60.8c8.7,0,15.7,7.1,15.7,15.7
				v39.4c0,8.7-7.1,15.7-15.7,15.7H153.8z"/>
			<path class="st3" d="M214.6,1194.9c7.6,0,13.7,6.2,13.7,13.7v39.4c0,7.6-6.2,13.7-13.7,13.7h-60.8c-7.6,0-13.7-6.2-13.7-13.7
				v-39.4c0-7.6,6.2-13.7,13.7-13.7H214.6 M214.6,1190.9h-60.8c-9.8,0-17.7,7.9-17.7,17.7v39.4c0,9.8,7.9,17.7,17.7,17.7h60.8
				c9.8,0,17.7-7.9,17.7-17.7v-39.4C232.3,1198.8,224.4,1190.9,214.6,1190.9L214.6,1190.9z"/>
		</g>
	</g>
	<g>
		<g>
			<path class="st0" d="M202.2,1362.9c-8.7,0-15.7-7.1-15.7-15.7v-39.4c0-8.7,7.1-15.7,15.7-15.7H263c8.7,0,15.7,7.1,15.7,15.7v39.4
				c0,8.7-7.1,15.7-15.7,15.7H202.2z"/>
			<path class="st3" d="M263,1294.1c7.6,0,13.7,6.2,13.7,13.7v39.4c0,7.6-6.2,13.7-13.7,13.7h-60.8c-7.6,0-13.7-6.2-13.7-13.7v-39.4
				c0-7.6,6.2-13.7,13.7-13.7H263 M263,1290.1h-60.8c-9.8,0-17.7,7.9-17.7,17.7v39.4c0,9.8,7.9,17.7,17.7,17.7H263
				c9.8,0,17.7-7.9,17.7-17.7v-39.4C280.7,1298,272.8,1290.1,263,1290.1L263,1290.1z"/>
		</g>
		<g>
			<path class="st0" d="M298.4,1362.9c-8.7,0-15.7-7.1-15.7-15.7v-39.4c0-8.7,7.1-15.7,15.7-15.7h60.8c8.7,0,15.7,7.1,15.7,15.7
				v39.4c0,8.7-7.1,15.7-15.7,15.7H298.4z"/>
			<path class="st3" d="M359.2,1294.1c7.6,0,13.7,6.2,13.7,13.7v39.4c0,7.6-6.2,13.7-13.7,13.7h-60.8c-7.6,0-13.7-6.2-13.7-13.7
				v-39.4c0-7.6,6.2-13.7,13.7-13.7H359.2 M359.2,1290.1h-60.8c-9.8,0-17.7,7.9-17.7,17.7v39.4c0,9.8,7.9,17.7,17.7,17.7h60.8
				c9.8,0,17.7-7.9,17.7-17.7v-39.4C377,1298,369,1290.1,359.2,1290.1L359.2,1290.1z"/>
		</g>
		<g>
			<path class="st0" d="M394.7,1362.9c-8.7,0-15.7-7.1-15.7-15.7v-39.4c0-8.7,7.1-15.7,15.7-15.7h60.8c8.7,0,15.7,7.1,15.7,15.7
				v39.4c0,8.7-7.1,15.7-15.7,15.7H394.7z"/>
			<path class="st3" d="M455.5,1294.1c7.6,0,13.7,6.2,13.7,13.7v39.4c0,7.6-6.2,13.7-13.7,13.7h-60.8c-7.6,0-13.7-6.2-13.7-13.7
				v-39.4c0-7.6,6.2-13.7,13.7-13.7H455.5 M455.5,1290.1h-60.8c-9.8,0-17.7,7.9-17.7,17.7v39.4c0,9.8,7.9,17.7,17.7,17.7h60.8
				c9.8,0,17.7-7.9,17.7-17.7v-39.4C473.2,1298,465.3,1290.1,455.5,1290.1L455.5,1290.1z"/>
		</g>
		<g>
			<path class="st0" d="M491,1362.9c-8.7,0-15.7-7.1-15.7-15.7v-39.4c0-8.7,7.1-15.7,15.7-15.7h60.8c8.7,0,15.7,7.1,15.7,15.7v39.4
				c0,8.7-7.1,15.7-15.7,15.7H491z"/>
			<path class="st3" d="M551.7,1294.1c7.6,0,13.7,6.2,13.7,13.7v39.4c0,7.6-6.2,13.7-13.7,13.7H491c-7.6,0-13.7-6.2-13.7-13.7v-39.4
				c0-7.6,6.2-13.7,13.7-13.7H551.7 M551.7,1290.1H491c-9.8,0-17.7,7.9-17.7,17.7v39.4c0,9.8,7.9,17.7,17.7,17.7h60.8
				c9.8,0,17.7-7.9,17.7-17.7v-39.4C569.5,1298,561.5,1290.1,551.7,1290.1L551.7,1290.1z"/>
		</g>
		<g>
			<path class="st0" d="M587.2,1362.9c-8.7,0-15.7-7.1-15.7-15.7v-39.4c0-8.7,7.1-15.7,15.7-15.7H648c8.7,0,15.7,7.1,15.7,15.7v39.4
				c0,8.7-7.1,15.7-15.7,15.7H587.2z"/>
			<path class="st3" d="M648,1294.1c7.6,0,13.7,6.2,13.7,13.7v39.4c0,7.6-6.2,13.7-13.7,13.7h-60.8c-7.6,0-13.7-6.2-13.7-13.7v-39.4
				c0-7.6,6.2-13.7,13.7-13.7H648 M648,1290.1h-60.8c-9.8,0-17.7,7.9-17.7,17.7v39.4c0,9.8,7.9,17.7,17.7,17.7H648
				c9.8,0,17.7-7.9,17.7-17.7v-39.4C665.7,1298,657.8,1290.1,648,1290.1L648,1290.1z"/>
		</g>
		<g>
			<path class="st0" d="M683.5,1362.9c-8.7,0-15.7-7.1-15.7-15.7v-39.4c0-8.7,7.1-15.7,15.7-15.7h60.8c8.7,0,15.7,7.1,15.7,15.7
				v39.4c0,8.7-7.1,15.7-15.7,15.7H683.5z"/>
			<path class="st3" d="M744.3,1294.1c7.6,0,13.7,6.2,13.7,13.7v39.4c0,7.6-6.2,13.7-13.7,13.7h-60.8c-7.6,0-13.7-6.2-13.7-13.7
				v-39.4c0-7.6,6.2-13.7,13.7-13.7H744.3 M744.3,1290.1h-60.8c-9.8,0-17.7,7.9-17.7,17.7v39.4c0,9.8,7.9,17.7,17.7,17.7h60.8
				c9.8,0,17.7-7.9,17.7-17.7v-39.4C762,1298,754,1290.1,744.3,1290.1L744.3,1290.1z"/>
		</g>
		<g>
			<path class="st0" d="M778.4,1362.9c-8.7,0-15.7-7.1-15.7-15.7v-39.4c0-8.7,7.1-15.7,15.7-15.7h60.8c8.7,0,15.7,7.1,15.7,15.7
				v39.4c0,8.7-7.1,15.7-15.7,15.7H778.4z"/>
			<path class="st3" d="M839.2,1294.1c7.6,0,13.7,6.2,13.7,13.7v39.4c0,7.6-6.2,13.7-13.7,13.7h-60.8c-7.6,0-13.7-6.2-13.7-13.7
				v-39.4c0-7.6,6.2-13.7,13.7-13.7H839.2 M839.2,1290.1h-60.8c-9.8,0-17.7,7.9-17.7,17.7v39.4c0,9.8,7.9,17.7,17.7,17.7h60.8
				c9.8,0,17.7-7.9,17.7-17.7v-39.4C856.9,1298,849,1290.1,839.2,1290.1L839.2,1290.1z"/>
		</g>
		<g>
			<path class="st0" d="M874.6,1362.9c-8.7,0-15.7-7.1-15.7-15.7v-39.4c0-8.7,7.1-15.7,15.7-15.7h60.8c8.7,0,15.7,7.1,15.7,15.7
				v39.4c0,8.7-7.1,15.7-15.7,15.7H874.6z"/>
			<path class="st3" d="M935.4,1294.1c7.6,0,13.7,6.2,13.7,13.7v39.4c0,7.6-6.2,13.7-13.7,13.7h-60.8c-7.6,0-13.7-6.2-13.7-13.7
				v-39.4c0-7.6,6.2-13.7,13.7-13.7H935.4 M935.4,1290.1h-60.8c-9.8,0-17.7,7.9-17.7,17.7v39.4c0,9.8,7.9,17.7,17.7,17.7h60.8
				c9.8,0,17.7-7.9,17.7-17.7v-39.4C953.2,1298,945.2,1290.1,935.4,1290.1L935.4,1290.1z"/>
		</g>
		<g>
			<path class="st0" d="M970.9,1362.9c-8.7,0-15.7-7.1-15.7-15.7v-39.4c0-8.7,7.1-15.7,15.7-15.7h60.8c8.7,0,15.7,7.1,15.7,15.7
				v39.4c0,8.7-7.1,15.7-15.7,15.7H970.9z"/>
			<path class="st3" d="M1031.7,1294.1c7.6,0,13.7,6.2,13.7,13.7v39.4c0,7.6-6.2,13.7-13.7,13.7h-60.8c-7.6,0-13.7-6.2-13.7-13.7
				v-39.4c0-7.6,6.2-13.7,13.7-13.7H1031.7 M1031.7,1290.1h-60.8c-9.8,0-17.7,7.9-17.7,17.7v39.4c0,9.8,7.9,17.7,17.7,17.7h60.8
				c9.8,0,17.7-7.9,17.7-17.7v-39.4C1049.4,1298,1041.5,1290.1,1031.7,1290.1L1031.7,1290.1z"/>
		</g>
		<g>
			<path class="st0" d="M1067.2,1362.9c-8.7,0-15.7-7.1-15.7-15.7v-39.4c0-8.7,7.1-15.7,15.7-15.7h60.8c8.7,0,15.7,7.1,15.7,15.7
				v39.4c0,8.7-7.1,15.7-15.7,15.7H1067.2z"/>
			<path class="st3" d="M1127.9,1294.1c7.6,0,13.7,6.2,13.7,13.7v39.4c0,7.6-6.2,13.7-13.7,13.7h-60.8c-7.6,0-13.7-6.2-13.7-13.7
				v-39.4c0-7.6,6.2-13.7,13.7-13.7H1127.9 M1127.9,1290.1h-60.8c-9.8,0-17.7,7.9-17.7,17.7v39.4c0,9.8,7.9,17.7,17.7,17.7h60.8
				c9.8,0,17.7-7.9,17.7-17.7v-39.4C1145.7,1298,1137.7,1290.1,1127.9,1290.1L1127.9,1290.1z"/>
		</g>
		<g>
			<path class="st0" d="M1163.4,1362.9c-8.7,0-15.7-7.1-15.7-15.7v-39.4c0-8.7,7.1-15.7,15.7-15.7h60.8c8.7,0,15.7,7.1,15.7,15.7
				v39.4c0,8.7-7.1,15.7-15.7,15.7H1163.4z"/>
			<path class="st3" d="M1224.2,1294.1c7.6,0,13.7,6.2,13.7,13.7v39.4c0,7.6-6.2,13.7-13.7,13.7h-60.8c-7.6,0-13.7-6.2-13.7-13.7
				v-39.4c0-7.6,6.2-13.7,13.7-13.7H1224.2 M1224.2,1290.1h-60.8c-9.8,0-17.7,7.9-17.7,17.7v39.4c0,9.8,7.9,17.7,17.7,17.7h60.8
				c9.8,0,17.7-7.9,17.7-17.7v-39.4C1241.9,1298,1234,1290.1,1224.2,1290.1L1224.2,1290.1z"/>
		</g>
		<g>
			<path class="st0" d="M1259.7,1362.9c-8.7,0-15.7-7.1-15.7-15.7v-39.4c0-8.7,7.1-15.7,15.7-15.7h60.8c8.7,0,15.7,7.1,15.7,15.7
				v39.4c0,8.7-7.1,15.7-15.7,15.7H1259.7z"/>
			<path class="st3" d="M1320.5,1294.1c7.6,0,13.7,6.2,13.7,13.7v39.4c0,7.6-6.2,13.7-13.7,13.7h-60.8c-7.6,0-13.7-6.2-13.7-13.7
				v-39.4c0-7.6,6.2-13.7,13.7-13.7H1320.5 M1320.5,1290.1h-60.8c-9.8,0-17.7,7.9-17.7,17.7v39.4c0,9.8,7.9,17.7,17.7,17.7h60.8
				c9.8,0,17.7-7.9,17.7-17.7v-39.4C1338.2,1298,1330.2,1290.1,1320.5,1290.1L1320.5,1290.1z"/>
		</g>
		<g>
			<path class="st0" d="M1354.6,1362.9c-8.7,0-15.7-7.1-15.7-15.7v-39.4c0-8.7,7.1-15.7,15.7-15.7h60.8c8.7,0,15.7,7.1,15.7,15.7
				v39.4c0,8.7-7.1,15.7-15.7,15.7H1354.6z"/>
			<path class="st3" d="M1415.4,1294.1c7.6,0,13.7,6.2,13.7,13.7v39.4c0,7.6-6.2,13.7-13.7,13.7h-60.8c-7.6,0-13.7-6.2-13.7-13.7
				v-39.4c0-7.6,6.2-13.7,13.7-13.7H1415.4 M1415.4,1290.1h-60.8c-9.8,0-17.7,7.9-17.7,17.7v39.4c0,9.8,7.9,17.7,17.7,17.7h60.8
				c9.8,0,17.7-7.9,17.7-17.7v-39.4C1433.1,1298,1425.2,1290.1,1415.4,1290.1L1415.4,1290.1z"/>
		</g>
		<g>
			<path class="st0" d="M1448.6,1362.9c-8.7,0-15.7-7.1-15.7-15.7v-39.4c0-8.7,7.1-15.7,15.7-15.7h60.8c8.7,0,15.7,7.1,15.7,15.7
				v39.4c0,8.7-7.1,15.7-15.7,15.7H1448.6z"/>
			<path class="st3" d="M1509.4,1294.1c7.6,0,13.7,6.2,13.7,13.7v39.4c0,7.6-6.2,13.7-13.7,13.7h-60.8c-7.6,0-13.7-6.2-13.7-13.7
				v-39.4c0-7.6,6.2-13.7,13.7-13.7H1509.4 M1509.4,1290.1h-60.8c-9.8,0-17.7,7.9-17.7,17.7v39.4c0,9.8,7.9,17.7,17.7,17.7h60.8
				c9.8,0,17.7-7.9,17.7-17.7v-39.4C1527.2,1298,1519.2,1290.1,1509.4,1290.1L1509.4,1290.1z"/>
		</g>
		<g>
			<path class="st0" d="M105.4,1362.9c-8.7,0-15.7-7.1-15.7-15.7v-39.4c0-8.7,7.1-15.7,15.7-15.7h60.8c8.7,0,15.7,7.1,15.7,15.7
				v39.4c0,8.7-7.1,15.7-15.7,15.7H105.4z"/>
			<path class="st3" d="M166.2,1294.1c7.6,0,13.7,6.2,13.7,13.7v39.4c0,7.6-6.2,13.7-13.7,13.7h-60.8c-7.6,0-13.7-6.2-13.7-13.7
				v-39.4c0-7.6,6.2-13.7,13.7-13.7H166.2 M166.2,1290.1h-60.8c-9.8,0-17.7,7.9-17.7,17.7v39.4c0,9.8,7.9,17.7,17.7,17.7h60.8
				c9.8,0,17.7-7.9,17.7-17.7v-39.4C183.9,1298,176,1290.1,166.2,1290.1L166.2,1290.1z"/>
		</g>
	</g>
</g>
</svg>
