<?xml version="1.0" encoding="utf-8"?>
<!-- Generator: Adobe Illustrator 22.0.1, SVG Export Plug-In . SVG Version: 6.00 Build 0)  -->
<svg version="1.1" id="レイヤー_1" xmlns="http://www.w3.org/2000/svg" xmlns:xlink="http://www.w3.org/1999/xlink" x="0px"
	 y="0px" viewBox="0 0 2880 1620" style="enable-background:new 0 0 2880 1620;" xml:space="preserve">
<style type="text/css">
	.st0{fill:none;stroke:#CABBF9;stroke-width:6;stroke-miterlimit:10;}
	.st1{fill:none;stroke:#CABBF9;stroke-width:9;stroke-miterlimit:10;}
	.st2{fill:#FFFE8B;stroke:#CABBF9;stroke-width:6;stroke-miterlimit:10;}
	.st3{fill:#CABBF9;}
</style>
<g>
	<path class="st0" d="M2433.1,329.8h-80.9c-2.9,0-5.3,2.4-5.3,5.3v3.9c0,2.6,2.1,4.7,4.7,4.7h77.2c2.3,0,4.2,1.9,4.2,4.2v4.6
		c0,2.2-1.7,3.9-3.9,3.9h-78c-2.3,0-4.2,1.9-4.2,4.2v1.8c0,2.3,1.8,4.1,4.1,4.1h77.3c2.6,0,4.7,2.1,4.7,4.7v1.5
		c0,2.2-1.8,3.9-3.9,3.9h-78c-2.3,0-4.2,1.9-4.2,4.2v1.3c0,2.5,2.1,4.6,4.6,4.6h76.5c2.8,0,5,2.3,5,5v0.6c0,2.5-2,4.5-4.5,4.5h-76
		c-3.1,0-5.6,2.5-5.6,5.6v1.5c0,2.4,1.9,4.3,4.3,4.3h76.5c2.9,0,5.3,2.4,5.3,5.3v1c0,2.2-1.7,3.9-3.9,3.9h-65.8
		c-0.8,0-1.6,0.1-2.4,0.3l-16.5,3.5"/>
	<path class="st0" d="M2354.6,431.1c-20.3,15.2-1.3,39.3-16.5,55.7c-54.5,55.7-53.2,173.5,50.7,178.6
		c108.9,2.5,121.6-121.6,57-172.3c-22.8-17.7-4-40.9-19-67.1"/>
</g>
<line class="st1" x1="2386.5" y1="-85.5" x2="2386.5" y2="310.5"/>
<g>
	<path class="st0" d="M2763.1,500.8h-80.9c-2.9,0-5.3,2.4-5.3,5.3v3.9c0,2.6,2.1,4.7,4.7,4.7h77.2c2.3,0,4.2,1.9,4.2,4.2v4.6
		c0,2.2-1.7,3.9-3.9,3.9h-78c-2.3,0-4.2,1.9-4.2,4.2v1.8c0,2.3,1.8,4.1,4.1,4.1h77.3c2.6,0,4.7,2.1,4.7,4.7v1.5
		c0,2.2-1.8,3.9-3.9,3.9h-78c-2.3,0-4.2,1.9-4.2,4.2v1.3c0,2.5,2.1,4.6,4.6,4.6h76.5c2.8,0,5,2.3,5,5v0.6c0,2.5-2,4.5-4.5,4.5h-76
		c-3.1,0-5.6,2.5-5.6,5.6v1.5c0,2.4,1.9,4.3,4.3,4.3h76.5c2.9,0,5.3,2.4,5.3,5.3v1c0,2.2-1.7,3.9-3.9,3.9h-65.8
		c-0.8,0-1.6,0.1-2.4,0.3l-16.5,3.5"/>
	<path class="st0" d="M2684.6,602.1c-20.3,15.2-1.3,39.3-16.5,55.7c-54.5,55.7-53.2,173.5,50.7,178.6
		c108.9,2.5,121.6-121.6,57-172.3c-22.8-17.7-4-40.9-19-67.1"/>
</g>
<line class="st1" x1="2716.5" y1="-69.5" x2="2716.5" y2="481.5"/>
<g>
	<path class="st0" d="M2118.1,440.8h-80.9c-2.9,0-5.3,2.4-5.3,5.3v3.9c0,2.6,2.1,4.7,4.7,4.7h77.2c2.3,0,4.2,1.9,4.2,4.2v4.6
		c0,2.2-1.7,3.9-3.9,3.9h-78c-2.3,0-4.2,1.9-4.2,4.2v1.8c0,2.3,1.8,4.1,4.1,4.1h77.3c2.6,0,4.7,2.1,4.7,4.7v1.5
		c0,2.2-1.8,3.9-3.9,3.9h-78c-2.3,0-4.2,1.9-4.2,4.2v1.3c0,2.5,2.1,4.6,4.6,4.6h76.5c2.8,0,5,2.3,5,5v0.6c0,2.5-2,4.5-4.5,4.5h-76
		c-3.1,0-5.6,2.5-5.6,5.6v1.5c0,2.4,1.9,4.3,4.3,4.3h76.5c2.9,0,5.3,2.4,5.3,5.3v1c0,2.2-1.7,3.9-3.9,3.9h-65.8
		c-0.8,0-1.6,0.1-2.4,0.3l-16.5,3.5"/>
	<path class="st0" d="M2039.6,542.1c-20.3,15.2-1.3,39.3-16.5,55.7c-54.5,55.7-53.2,173.5,50.7,178.6
		c108.9,2.5,121.6-121.6,57-172.3c-22.8-17.7-4-40.9-19-67.1"/>
</g>
<line class="st1" x1="2071.5" y1="-85.5" x2="2071.5" y2="421.5"/>
<g>
	<path class="st0" d="M1802.1,197.8h-80.9c-2.9,0-5.3,2.4-5.3,5.3v3.9c0,2.6,2.1,4.7,4.7,4.7h77.2c2.3,0,4.2,1.9,4.2,4.2v4.6
		c0,2.2-1.7,3.9-3.9,3.9h-78c-2.3,0-4.2,1.9-4.2,4.2v1.8c0,2.3,1.8,4.1,4.1,4.1h77.3c2.6,0,4.7,2.1,4.7,4.7v1.5
		c0,2.2-1.8,3.9-3.9,3.9h-78c-2.3,0-4.2,1.9-4.2,4.2v1.3c0,2.5,2.1,4.6,4.6,4.6h76.5c2.8,0,5,2.3,5,5v0.6c0,2.5-2,4.5-4.5,4.5h-76
		c-3.1,0-5.6,2.5-5.6,5.6v1.5c0,2.4,1.9,4.3,4.3,4.3h76.5c2.9,0,5.3,2.4,5.3,5.3v1c0,2.2-1.7,3.9-3.9,3.9h-65.8
		c-0.8,0-1.6,0.1-2.4,0.3l-16.5,3.5"/>
	<path class="st0" d="M1723.6,299.1c-20.3,15.2-1.3,39.3-16.5,55.7c-54.5,55.7-53.2,173.5,50.7,178.6
		c108.9,2.5,121.6-121.6,57-172.3c-22.8-17.7-4-40.9-19-67.1"/>
</g>
<line class="st1" x1="1755.5" y1="-135.5" x2="1755.5" y2="178.5"/>
<g>
	<path class="st0" d="M1176.1,576.8h-80.9c-2.9,0-5.3,2.4-5.3,5.3v3.9c0,2.6,2.1,4.7,4.7,4.7h77.2c2.3,0,4.2,1.9,4.2,4.2v4.6
		c0,2.2-1.7,3.9-3.9,3.9h-78c-2.3,0-4.2,1.9-4.2,4.2v1.8c0,2.3,1.8,4.1,4.1,4.1h77.3c2.6,0,4.7,2.1,4.7,4.7v1.5
		c0,2.2-1.8,3.9-3.9,3.9h-78c-2.3,0-4.2,1.9-4.2,4.2v1.3c0,2.5,2.1,4.6,4.6,4.6h76.5c2.8,0,5,2.3,5,5v0.6c0,2.5-2,4.5-4.5,4.5h-76
		c-3.1,0-5.6,2.5-5.6,5.6v1.5c0,2.4,1.9,4.3,4.3,4.3h76.5c2.9,0,5.3,2.4,5.3,5.3v1c0,2.2-1.7,3.9-3.9,3.9h-65.8
		c-0.8,0-1.6,0.1-2.4,0.3l-16.5,3.5"/>
	<path class="st0" d="M1097.6,678.1c-20.3,15.2-1.3,39.3-16.5,55.7c-54.5,55.7-53.2,173.5,50.7,178.6
		c108.9,2.5,121.6-121.6,57-172.3c-22.8-17.7-4-40.9-19-67.1"/>
</g>
<line class="st1" x1="1129.5" y1="-41.5" x2="1129.5" y2="557.5"/>
<g>
	<path class="st0" d="M828.1,177.8h-80.9c-2.9,0-5.3,2.4-5.3,5.3v3.9c0,2.6,2.1,4.7,4.7,4.7h77.2c2.3,0,4.2,1.9,4.2,4.2v4.6
		c0,2.2-1.7,3.9-3.9,3.9h-78c-2.3,0-4.2,1.9-4.2,4.2v1.8c0,2.3,1.8,4.1,4.1,4.1h77.3c2.6,0,4.7,2.1,4.7,4.7v1.5
		c0,2.2-1.8,3.9-3.9,3.9h-78c-2.3,0-4.2,1.9-4.2,4.2v1.3c0,2.5,2.1,4.6,4.6,4.6h76.5c2.8,0,5,2.3,5,5v0.6c0,2.5-2,4.5-4.5,4.5h-76
		c-3.1,0-5.6,2.5-5.6,5.6v1.5c0,2.4,1.9,4.3,4.3,4.3h76.5c2.9,0,5.3,2.4,5.3,5.3v1c0,2.2-1.7,3.9-3.9,3.9h-65.8
		c-0.8,0-1.6,0.1-2.4,0.3l-16.5,3.5"/>
	<path class="st0" d="M749.6,279.1c-20.3,15.2-1.3,39.3-16.5,55.7c-54.5,55.7-53.2,173.5,50.7,178.6c108.9,2.5,121.6-121.6,57-172.3
		c-22.8-17.7-4-40.9-19-67.1"/>
</g>
<line class="st1" x1="781.5" y1="-155.5" x2="781.5" y2="158.5"/>
<g>
	<path class="st0" d="M510.1,715.8h-80.9c-2.9,0-5.3,2.4-5.3,5.3v3.9c0,2.6,2.1,4.7,4.7,4.7h77.2c2.3,0,4.2,1.9,4.2,4.2v4.6
		c0,2.2-1.7,3.9-3.9,3.9h-78c-2.3,0-4.2,1.9-4.2,4.2v1.8c0,2.3,1.8,4.1,4.1,4.1h77.3c2.6,0,4.7,2.1,4.7,4.7v1.5
		c0,2.2-1.8,3.9-3.9,3.9h-78c-2.3,0-4.2,1.9-4.2,4.2v1.3c0,2.5,2.1,4.6,4.6,4.6h76.5c2.8,0,5,2.3,5,5v0.6c0,2.5-2,4.5-4.5,4.5h-76
		c-3.1,0-5.6,2.5-5.6,5.6v1.5c0,2.4,1.9,4.3,4.3,4.3h76.5c2.9,0,5.3,2.4,5.3,5.3v1c0,2.2-1.7,3.9-3.9,3.9h-65.8
		c-0.8,0-1.6,0.1-2.4,0.3l-16.5,3.5"/>
	<path class="st0" d="M431.6,817.1c-20.3,15.2-1.3,39.3-16.5,55.7c-54.5,55.7-53.2,173.5,50.7,178.6c108.9,2.5,121.6-121.6,57-172.3
		c-22.8-17.7-4-40.9-19-67.1"/>
</g>
<line class="st1" x1="463.5" y1="-85.5" x2="463.5" y2="696.5"/>
<g>
	<path class="st0" d="M222.1,106.8h-80.9c-2.9,0-5.3,2.4-5.3,5.3v3.9c0,2.6,2.1,4.7,4.7,4.7h77.2c2.3,0,4.2,1.9,4.2,4.2v4.6
		c0,2.2-1.7,3.9-3.9,3.9h-78c-2.3,0-4.2,1.9-4.2,4.2v1.8c0,2.3,1.8,4.1,4.1,4.1h77.3c2.6,0,4.7,2.1,4.7,4.7v1.5
		c0,2.2-1.8,3.9-3.9,3.9h-78c-2.3,0-4.2,1.9-4.2,4.2v1.3c0,2.5,2.1,4.6,4.6,4.6h76.5c2.8,0,5,2.3,5,5v0.6c0,2.5-2,4.5-4.5,4.5h-76
		c-3.1,0-5.6,2.5-5.6,5.6v1.5c0,2.4,1.9,4.3,4.3,4.3h76.5c2.9,0,5.3,2.4,5.3,5.3v1c0,2.2-1.7,3.9-3.9,3.9h-65.8
		c-0.8,0-1.6,0.1-2.4,0.3l-16.5,3.5"/>
	<path class="st0" d="M143.6,208.1c-20.3,15.2-1.3,39.3-16.5,55.7c-54.5,55.7-53.2,173.5,50.7,178.6c108.9,2.5,121.6-121.6,57-172.3
		c-22.8-17.7-4-40.9-19-67.1"/>
</g>
<line class="st1" x1="175.5" y1="-226.5" x2="175.5" y2="87.5"/>
<path class="st0" d="M1479.4,1157.8h-80.9c-2.9,0-5.3,2.4-5.3,5.3v3.9c0,2.6,2.1,4.7,4.7,4.7h77.2c2.3,0,4.2,1.9,4.2,4.2v4.6
	c0,2.2-1.8,3.9-3.9,3.9h-78c-2.3,0-4.2,1.9-4.2,4.2v1.8c0,2.3,1.8,4.1,4.1,4.1h77.3c2.6,0,4.7,2.1,4.7,4.7v1.5
	c0,2.2-1.8,3.9-3.9,3.9h-78c-2.3,0-4.2,1.9-4.2,4.2v1.3c0,2.5,2.1,4.6,4.6,4.6h76.5c2.8,0,5,2.3,5,5v0.6c0,2.5-2,4.5-4.5,4.5h-76
	c-3.1,0-5.6,2.5-5.6,5.6v1.5c0,2.4,1.9,4.3,4.3,4.3h76.5c2.9,0,5.3,2.4,5.3,5.3v1c0,2.2-1.7,3.9-3.9,3.9h-65.8
	c-0.8,0-1.6,0.1-2.4,0.3l-16.5,3.5"/>
<path class="st2" d="M1400.9,1259.1c-20.3,15.2-1.3,39.3-16.5,55.7c-54.5,55.7-53.2,173.5,50.7,178.6
	c108.9,2.5,121.6-121.6,57-172.3c-22.8-17.7-4-40.9-19-67.1"/>
<line class="st1" x1="1432.8" y1="-135.5" x2="1432.8" y2="1138.5"/>
<g>
	<g>
		<path class="st3" d="M1341.3,1489c-4.2,2.9-8,6.2-11.2,10.2c-3.3,4.1-5.5,9.2-9.5,12.8c-4.3,3.9,2.1,10.2,6.4,6.4
			c3.6-3.3,5.7-7.5,8.5-11.4c2.8-4,6.4-7.3,10.4-10.1C1350.6,1493.5,1346.1,1485.7,1341.3,1489L1341.3,1489z"/>
	</g>
</g>
<g>
	<g>
		<path class="st3" d="M1389.1,1519.7c-4.2,5.1-7.6,10.6-10.1,16.8c-1.9,4.7-4.7,11.4-1.2,16.1c3.4,4.6,11.3,0.1,7.8-4.5
			c-1.7-2.2,2-8.9,3-11.1c1.9-3.9,4.2-7.5,6.9-10.9C1399.2,1521.6,1392.8,1515.2,1389.1,1519.7L1389.1,1519.7z"/>
	</g>
</g>
<g>
	<g>
		<path class="st3" d="M1442.9,1535.4c0.2-0.1,0.4-0.1,0.5-0.2c-1.5-0.4-2.9-0.8-4.4-1.2c-0.8-0.8-0.6,3.8-0.6,3.6
			c0,1.8,0,3.6,0,5.3c0,3.6,0,7.1,0,10.7c0,5.8,9,5.8,9,0c0-5,0-10.1,0-15.1c0-3.9,0.7-7.8-2.1-10.9c-1-1.2-2.9-1.6-4.4-1.2
			c-0.2,0.1-0.4,0.1-0.5,0.2C1434.9,1528.3,1437.3,1537,1442.9,1535.4L1442.9,1535.4z"/>
	</g>
</g>
<g>
	<g>
		<path class="st3" d="M1482.8,1524.2c3.9,2.8,6.1,6.5,7.8,10.9c1.6,4.1,3.5,7.5,8,8.8c5.6,1.6,8-7.1,2.4-8.7
			c-1.3-0.4-1.8-2.8-2.2-4c-0.7-2-1.5-3.9-2.6-5.7c-2.2-3.7-5.3-6.6-8.8-9.1C1482.6,1513.1,1478.1,1520.9,1482.8,1524.2
			L1482.8,1524.2z"/>
	</g>
</g>
<g>
	<g>
		<path class="st3" d="M1526.3,1489.7c10.1,4.8,18.6,11.7,25.5,20.5c3.5,4.6,9.9-1.8,6.4-6.4c-7.3-9.4-16.6-16.8-27.3-21.9
			C1525.6,1479.5,1521.1,1487.2,1526.3,1489.7L1526.3,1489.7z"/>
	</g>
</g>
</svg>
