<?xml version="1.0" encoding="utf-8"?>
<!-- Generator: Adobe Illustrator 22.0.1, SVG Export Plug-In . SVG Version: 6.00 Build 0)  -->
<svg version="1.1" xmlns="http://www.w3.org/2000/svg" xmlns:xlink="http://www.w3.org/1999/xlink" x="0px" y="0px"
	 viewBox="0 0 1280 818" style="enable-background:new 0 0 1280 818;" xml:space="preserve">
<style type="text/css">
	.st0{fill:#D27878;}
	.st1{fill:#69A569;}
	.st2{fill:#E6A064;}
	.st3{font-family:'KozGoPr6N-Medium-83pv-RKSJ-H';}
	.st4{font-size:55px;}
	.st5{letter-spacing:2;}
	.st6{font-family:'KozGoPr6N-Regular-83pv-RKSJ-H';}
	.st7{font-size:35px;}
	.st8{letter-spacing:1;}
</style>
<g id="レイヤー_1">
</g>
<g id="レイヤー_2">
	<g>
		<path class="st0" d="M362.4,54.4H94.3c-2.8,0-5,2.3-5,5v490.4c0,2.8,2.3,5,5,5h268.1c2.8,0,5-2.3,5-5V59.5
			C367.4,56.7,365.1,54.4,362.4,54.4z M199.1,69.7c0-0.5,0.4-0.9,0.9-0.9h56.6c0.5,0,0.9,0.4,0.9,0.9v4.7c0,0.5-0.4,0.9-0.9,0.9H200
			c-0.5,0-0.9-0.4-0.9-0.9V69.7z M187.2,67.5c2.5,0,4.6,2.1,4.6,4.6c0,2.5-2.1,4.6-4.6,4.6c-2.5,0-4.6-2.1-4.6-4.6
			C182.6,69.5,184.6,67.5,187.2,67.5z M228.3,543.4c-10.6,0-19.1-8.6-19.1-19.1c0-10.6,8.6-19.1,19.1-19.1
			c10.6,0,19.1,8.6,19.1,19.1C247.4,534.8,238.9,543.4,228.3,543.4z M339,493.2H117.6V94.7H339V493.2z"/>
		<path class="st1" d="M774,54.4H506c-2.8,0-5,2.3-5,5v490.4c0,2.8,2.3,5,5,5H774c2.8,0,5-2.3,5-5V59.5
			C779.1,56.7,776.8,54.4,774,54.4z M610.8,69.7c0-0.5,0.4-0.9,0.9-0.9h56.6c0.5,0,0.9,0.4,0.9,0.9v4.7c0,0.5-0.4,0.9-0.9,0.9h-56.6
			c-0.5,0-0.9-0.4-0.9-0.9V69.7z M598.8,67.5c2.5,0,4.6,2.1,4.6,4.6c0,2.5-2.1,4.6-4.6,4.6c-2.5,0-4.6-2.1-4.6-4.6
			C594.2,69.5,596.3,67.5,598.8,67.5z M640,543.4c-10.6,0-19.1-8.6-19.1-19.1c0-10.6,8.6-19.1,19.1-19.1s19.1,8.6,19.1,19.1
			C659.1,534.8,650.6,543.4,640,543.4z M750.7,493.2H529.3V94.7h221.4V493.2z"/>
		<path class="st2" d="M1185.7,54.4H917.6c-2.8,0-5,2.3-5,5v490.4c0,2.8,2.3,5,5,5h268.1c2.8,0,5-2.3,5-5V59.5
			C1190.7,56.7,1188.5,54.4,1185.7,54.4z M1022.4,69.7c0-0.5,0.4-0.9,0.9-0.9h56.6c0.5,0,0.9,0.4,0.9,0.9v4.7c0,0.5-0.4,0.9-0.9,0.9
			h-56.6c-0.5,0-0.9-0.4-0.9-0.9V69.7z M1010.5,67.5c2.5,0,4.6,2.1,4.6,4.6c0,2.5-2.1,4.6-4.6,4.6s-4.6-2.1-4.6-4.6
			C1005.9,69.5,1007.9,67.5,1010.5,67.5z M1051.7,543.4c-10.6,0-19.1-8.6-19.1-19.1c0-10.6,8.6-19.1,19.1-19.1s19.1,8.6,19.1,19.1
			C1070.8,534.8,1062.2,543.4,1051.7,543.4z M1162.4,493.2H941V94.7h221.4V493.2z"/>
		<g>
			<path class="st0" d="M227.6,189.4c4.6,9.6,9.4,15.3,22.4,26.5c22.8,19.7,26.1,22.8,33.1,33.1c6.4,9.2,9.6,18,9.6,26.3
				c0,9.6-4.4,20.6-12.1,30.5c-5.5,7.2-12.1,12.9-24.1,21.7l-3.3-4.2c1.3-1.5,2.4-2.6,3.1-3.3c12.7-12.9,15.3-16,18.6-22.4
				c3.7-7,5.3-12.9,5.3-19.3c0-14.5-14.2-28.9-48.2-49.3v113.3c0,12.7-0.2,14-3.3,19.7c-6.8,12.9-22.8,22.6-37.9,22.6
				c-8.5,0-15.1-2.4-19.1-7.2c-3.5-3.7-5.5-9.2-5.5-14.2c0-9.6,6.1-18.6,16.7-24.3c5.9-3.1,14.2-5.5,19.3-5.5
				c3.3,0,7.7,0.4,12.5,1.3c3.1,0.4,3.9,0.7,7.2,2.4V189.4H227.6z"/>
		</g>
		<g>
			<path class="st1" d="M640,400.3c-55.1,0-100-44.9-100-100s44.9-100,100-100c55.1,0,100,44.9,100,100S695.1,400.3,640,400.3z
				 M640,208.3c-50.7,0-92,41.3-92,92s41.3,92,92,92c50.7,0,92-41.3,92-92S690.7,208.3,640,208.3z"/>
			<path class="st1" d="M635.4,310.5v-89.1c0-2.2,1.8-4,4-4s4,1.8,4,4v69.8l35.1-35.1c1.6-1.6,4.1-1.6,5.7,0c1.6,1.6,1.6,4.1,0,5.7
				L635.4,310.5z"/>
		</g>
		<g>
			<path class="st2" d="M1051.7,300.3l27.3-87c-5.5-1.7-11.2-2.9-17.1-3.6c-50.1-5.6-95.2,30.4-100.8,80.4s30.4,95.2,80.4,100.8
				c50.1,5.6,95.2-30.4,100.8-80.4c2-17.5-1.2-34.5-8.2-49.3L1051.7,300.3z"/>
		</g>
		<path class="st2" d="M1111.8,207.9c-0.8,0-1.5-0.3-2.1-0.9c-1.2-1.2-1.2-3.1,0-4.2l27.3-27.3c1.2-1.2,3.1-1.2,4.2,0
			c1.2,1.2,1.2,3.1,0,4.2l-27.3,27.3C1113.3,207.7,1112.6,207.9,1111.8,207.9z"/>
		<path class="st2" d="M1092.8,197.1c-0.3,0-0.6-0.1-1-0.2c-1.6-0.5-2.4-2.2-1.9-3.8l12.3-36.6c0.5-1.6,2.2-2.4,3.8-1.9
			c1.6,0.5,2.4,2.2,1.9,3.8l-12.3,36.6C1095.2,196.4,1094.1,197.1,1092.8,197.1z"/>
		<text transform="matrix(1 0 0 1 170.5938 640.6105)" class="st0 st3 st4 st5">娯楽</text>
		<text transform="matrix(1 0 0 1 582.25 640.6105)" class="st1 st3 st4 st5">便利</text>
		<text transform="matrix(1 0 0 1 993.9062 640.6105)" class="st2 st3 st4 st5">交流</text>
		<text transform="matrix(1 0 0 1 136.4688 712.695)"><tspan x="0" y="0" class="st0 st6 st7 st8">動画を見る</tspan><tspan x="0" y="57" class="st0 st6 st7 st8">音楽を聞く</tspan></text>
		<text transform="matrix(1 0 0 1 531.75 712.695)"><tspan x="0" y="0" class="st1 st6 st7 st8">調べ物をする</tspan><tspan x="18.4" y="57" class="st1 st6 st7 st8">地図を見る</tspan></text>
		<text transform="matrix(1 0 0 1 1018.2142 712.695)"><tspan x="0" y="0" class="st2 st6 st7 st8">SNS</tspan><tspan x="-3.3" y="57" class="st2 st6 st7 st8">電話</tspan></text>
	</g>
</g>
</svg>
