<?xml version="1.0" encoding="utf-8"?>
<!-- Generator: Adobe Illustrator 22.1.0, SVG Export Plug-In . SVG Version: 6.00 Build 0)  -->
<svg version="1.1" id="レイヤー_1" xmlns="http://www.w3.org/2000/svg" xmlns:xlink="http://www.w3.org/1999/xlink" x="0px"
	 y="0px" viewBox="0 0 72 68" style="enable-background:new 0 0 72 68;" xml:space="preserve">
<style type="text/css">
	.st0{fill:#231815;}
</style>
<title>icon-online</title>
<desc>Created with Sketch.</desc>
<g id="Page-1">
	<g id="cover_x2F_online" transform="translate(-112.000000, -98.000000)">
		<path id="icon-online" class="st0" d="M148,98c9.9,0,18.4,3.5,25.4,10.5c7,7,10.6,15.5,10.6,25.5c0,6.5-1.6,12.6-4.8,18.2
			c-3.2,5.6-7.6,9.9-13.1,13.1l-3.7-6.3c4.4-2.6,7.9-6.1,10.6-10.6c2.6-4.5,4-9.3,4-14.5c0-7.9-2.8-14.6-8.5-20.3
			c-5.6-5.6-12.5-8.5-20.5-8.5s-14.8,2.8-20.5,8.5c-5.6,5.6-8.5,12.4-8.5,20.3c0,5.3,1.3,10.1,3.9,14.5c2.6,4.4,6.1,7.9,10.5,10.5
			l-3.5,6.3c-5.5-3.2-9.9-7.5-13.1-13.1c-3.2-5.6-4.8-11.6-4.8-18.2c0-10,3.5-18.5,10.6-25.5C129.6,101.5,138.1,98,148,98z
			 M169.6,134c0,3.9-1,7.6-3,10.9c-2,3.3-4.6,5.9-7.9,7.9l-3.5-6.3c4.7-2.8,7.1-7,7.1-12.5c0-3.9-1.4-7.3-4.2-10.1
			c-2.8-2.8-6.2-4.2-10.1-4.2s-7.3,1.4-10.1,4.2c-2.8,2.8-4.2,6.2-4.2,10.1c0,5.5,2.4,9.7,7.1,12.5l-3.5,6.3
			c-3.3-1.9-5.9-4.5-7.9-7.9c-2-3.3-3-7-3-10.9c0-6,2.1-11.1,6.3-15.3c4.2-4.2,9.3-6.3,15.3-6.3s11.1,2.1,15.3,6.3
			C167.5,122.9,169.6,128,169.6,134z M148,126.9c1.9,0,3.6,0.7,5.1,2.1c1.5,1.4,2.2,3.1,2.2,5s-0.7,3.6-2.2,5.1
			c-1.5,1.5-3.2,2.2-5.1,2.2s-3.6-0.7-5.1-2.2c-1.5-1.5-2.2-3.2-2.2-5.1s0.7-3.6,2.2-5C144.4,127.6,146.1,126.9,148,126.9z"/>
	</g>
</g>
</svg>
